<?xml version="1.0" encoding="UTF-8"?>
<!DOCTYPE svg PUBLIC "-//W3C//DTD SVG 1.1//EN" "http://www.w3.org/Graphics/SVG/1.1/DTD/svg11.dtd">
<svg xmlns="http://www.w3.org/2000/svg" version="1.1" width="512px" height="512px" style="shape-rendering:geometricPrecision; text-rendering:geometricPrecision; image-rendering:optimizeQuality; fill-rule:evenodd; clip-rule:evenodd" xmlns:xlink="http://www.w3.org/1999/xlink">
<g><path style="opacity:0.999" fill="#3b4854" d="M 73.5,-0.5 C 84.5,-0.5 95.5,-0.5 106.5,-0.5C 96.9443,4.62029 93.2777,12.6203 95.5,23.5C 87.2298,25.5418 85.5631,30.0418 90.5,37C 92.0249,38.0086 93.6916,38.5086 95.5,38.5C 95.5,83.8333 95.5,129.167 95.5,174.5C 95.5,183.5 95.5,192.5 95.5,201.5C 95.5,239.833 95.5,278.167 95.5,316.5C 95.5,358.5 95.5,400.5 95.5,442.5C 95.5,452.167 95.5,461.833 95.5,471.5C 88.693,473.113 86.5264,477.113 89,483.5C 90.6379,485.734 92.8045,487.067 95.5,487.5C 93.2777,498.38 96.9443,506.38 106.5,511.5C 95.5,511.5 84.5,511.5 73.5,511.5C 69.189,509.353 66.0223,506.02 64,501.5C 63.3333,337.5 63.3333,173.5 64,9.5C 66.0223,4.98004 69.189,1.6467 73.5,-0.5 Z"/></g>
<g><path style="opacity:1" fill="#616d79" d="M 106.5,-0.5 C 216.833,-0.5 327.167,-0.5 437.5,-0.5C 441.811,1.6467 444.978,4.98004 447,9.5C 447.667,173.5 447.667,337.5 447,501.5C 444.978,506.02 441.811,509.353 437.5,511.5C 327.167,511.5 216.833,511.5 106.5,511.5C 96.9443,506.38 93.2777,498.38 95.5,487.5C 102.176,485.81 104.343,481.81 102,475.5C 100.362,473.266 98.1955,471.933 95.5,471.5C 95.5,461.833 95.5,452.167 95.5,442.5C 96.5964,444.103 97.9297,445.603 99.5,447C 117.193,447.693 126.693,456.859 128,474.5C 128.785,476.286 129.951,477.786 131.5,479C 171.167,479.667 210.833,479.667 250.5,479C 252.667,478.167 254.167,476.667 255,474.5C 255.5,455.17 255.667,435.836 255.5,416.5C 255.666,406.828 255.5,397.161 255,387.5C 253.285,384.603 250.785,383.269 247.5,383.5C 240.134,383.163 232.801,382.496 225.5,381.5C 223.269,375.159 220.269,369.159 216.5,363.5C 219.934,358.284 223.601,353.284 227.5,348.5C 243.894,352.034 260.227,352.367 276.5,349.5C 339.116,339.051 382.282,304.384 406,245.5C 425.278,186.561 415.278,133.228 376,85.5C 348.178,54.1721 313.345,36.5054 271.5,32.5C 204.451,27.7742 152.951,53.7742 117,110.5C 105.893,130.655 98.7266,151.988 95.5,174.5C 95.5,129.167 95.5,83.8333 95.5,38.5C 103.77,36.4582 105.437,31.9582 100.5,25C 98.9751,23.9914 97.3084,23.4914 95.5,23.5C 93.2777,12.6203 96.9443,4.62029 106.5,-0.5 Z"/></g>
<g><path style="opacity:1" fill="#2b353f" d="M 95.5,23.5 C 97.3084,23.4914 98.9751,23.9914 100.5,25C 105.437,31.9582 103.77,36.4582 95.5,38.5C 93.6916,38.5086 92.0249,38.0086 90.5,37C 85.5631,30.0418 87.2298,25.5418 95.5,23.5 Z"/></g>
<g><path style="opacity:1" fill="#2c3640" d="M 412.5,23.5 C 418.629,22.5548 422.296,25.0548 423.5,31C 422.008,37.418 418.008,39.7514 411.5,38C 406.003,32.6829 406.336,27.8495 412.5,23.5 Z"/></g>
<g><path style="opacity:1" fill="#cbd6e1" d="M 271.5,32.5 C 217.514,38.3401 176.347,64.3401 148,110.5C 120.754,161.142 119.42,212.475 144,264.5C 161.154,295.821 185.654,319.488 217.5,335.5C 215.518,338.81 213.185,341.81 210.5,344.5C 162.749,329.588 128.582,299.255 108,253.5C 101.586,236.573 97.4197,219.24 95.5,201.5C 95.5,192.5 95.5,183.5 95.5,174.5C 98.7266,151.988 105.893,130.655 117,110.5C 152.951,53.7742 204.451,27.7742 271.5,32.5 Z"/></g>
<g><path style="opacity:1" fill="#f1f1f1" d="M 271.5,32.5 C 313.345,36.5054 348.178,54.1721 376,85.5C 415.278,133.228 425.278,186.561 406,245.5C 382.282,304.384 339.116,339.051 276.5,349.5C 262.461,349.726 248.795,347.559 235.5,343C 234.244,342.583 233.577,341.75 233.5,340.5C 253.324,314.196 273.158,287.863 293,261.5C 297.142,252.638 294.309,248.138 284.5,248C 261.92,277.067 239.587,306.234 217.5,335.5C 185.654,319.488 161.154,295.821 144,264.5C 119.42,212.475 120.754,161.142 148,110.5C 176.347,64.3401 217.514,38.3401 271.5,32.5 Z"/></g>
<g><path style="opacity:1" fill="#ccd7e2" d="M 245.5,143.5 C 275.361,140.997 294.528,153.997 303,182.5C 305.292,211.103 292.792,229.603 265.5,238C 237.478,241.411 218.645,229.911 209,203.5C 204.609,173.262 216.776,153.262 245.5,143.5 Z"/></g>
<g><path style="opacity:1" fill="#abb4bd" d="M 249.5,175.5 C 264.332,174.17 271.499,180.837 271,195.5C 267.016,205.241 259.85,208.741 249.5,206C 239.683,200.526 237.183,192.693 242,182.5C 244.396,179.933 246.896,177.6 249.5,175.5 Z"/></g>
<g><path style="opacity:1" fill="#616d79" d="M 95.5,201.5 C 97.4197,219.24 101.586,236.573 108,253.5C 128.582,299.255 162.749,329.588 210.5,344.5C 208.518,347.81 206.185,350.81 203.5,353.5C 194.325,350.488 185.325,350.988 176.5,355C 173.28,357.437 169.947,359.603 166.5,361.5C 160.003,358.086 153.67,354.419 147.5,350.5C 143.117,346.786 138.45,343.453 133.5,340.5C 124.033,331.865 115.033,322.699 106.5,313C 101.872,311.663 98.2054,312.83 95.5,316.5C 95.5,278.167 95.5,239.833 95.5,201.5 Z"/></g>
<g><path style="opacity:1" fill="#acb4bd" d="M 233.5,340.5 C 231.512,343.128 229.512,345.795 227.5,348.5C 223.601,353.284 219.934,358.284 216.5,363.5C 209.881,372.537 202.881,381.37 195.5,390C 190.053,392.836 186.22,391.336 184,385.5C 183.333,384.167 183.333,382.833 184,381.5C 190.745,372.269 197.245,362.935 203.5,353.5C 206.185,350.81 208.518,347.81 210.5,344.5C 213.185,341.81 215.518,338.81 217.5,335.5C 239.587,306.234 261.92,277.067 284.5,248C 294.309,248.138 297.142,252.638 293,261.5C 273.158,287.863 253.324,314.196 233.5,340.5 Z"/></g>
<g><path style="opacity:1" fill="#f1f1f1" d="M 133.5,340.5 C 114.72,369.231 114.887,397.898 134,426.5C 154.635,451.822 180.802,460.322 212.5,452C 231.613,445.8 245.947,433.967 255.5,416.5C 255.667,435.836 255.5,455.17 255,474.5C 254.167,476.667 252.667,478.167 250.5,479C 210.833,479.667 171.167,479.667 131.5,479C 129.951,477.786 128.785,476.286 128,474.5C 126.693,456.859 117.193,447.693 99.5,447C 97.9297,445.603 96.5964,444.103 95.5,442.5C 95.5,400.5 95.5,358.5 95.5,316.5C 98.2054,312.83 101.872,311.663 106.5,313C 115.033,322.699 124.033,331.865 133.5,340.5 Z"/></g>
<g><path style="opacity:1" fill="#f1f1f1" d="M 404.5,312.5 C 406.857,312.337 409.19,312.503 411.5,313C 413.333,313.5 414.5,314.667 415,316.5C 415.989,359.251 415.655,401.917 414,444.5C 413.097,445.701 411.931,446.535 410.5,447C 392.575,448.592 383.075,458.426 382,476.5C 381.097,477.701 379.931,478.535 378.5,479C 349.5,479.667 320.5,479.667 291.5,479C 289.951,477.786 288.785,476.286 288,474.5C 287.333,444.167 287.333,413.833 288,383.5C 289.214,381.951 290.714,380.785 292.5,380C 337.88,370.492 375.214,347.992 404.5,312.5 Z"/></g>
<g><path style="opacity:1" fill="#ccd7e2" d="M 133.5,340.5 C 138.45,343.453 143.117,346.786 147.5,350.5C 145.376,351.031 143.876,352.365 143,354.5C 131.798,377.215 133.465,398.882 148,419.5C 170.377,442.218 195.544,445.718 223.5,430C 239.285,418.599 247.285,403.099 247.5,383.5C 250.785,383.269 253.285,384.603 255,387.5C 255.5,397.161 255.666,406.828 255.5,416.5C 245.947,433.967 231.613,445.8 212.5,452C 180.802,460.322 154.635,451.822 134,426.5C 114.887,397.898 114.72,369.231 133.5,340.5 Z"/></g>
<g><path style="opacity:1" fill="#c5cfda" d="M 233.5,340.5 C 233.577,341.75 234.244,342.583 235.5,343C 248.795,347.559 262.461,349.726 276.5,349.5C 260.227,352.367 243.894,352.034 227.5,348.5C 229.512,345.795 231.512,343.128 233.5,340.5 Z"/></g>
<g><path style="opacity:1" fill="#f1f1f1" d="M 147.5,350.5 C 153.67,354.419 160.003,358.086 166.5,361.5C 164.352,366.468 162.185,371.468 160,376.5C 158.448,401.941 170.281,414.774 195.5,415C 207.653,413.184 216.153,406.684 221,395.5C 221.957,390.413 223.457,385.746 225.5,381.5C 232.801,382.496 240.134,383.163 247.5,383.5C 247.285,403.099 239.285,418.599 223.5,430C 195.544,445.718 170.377,442.218 148,419.5C 133.465,398.882 131.798,377.215 143,354.5C 143.876,352.365 145.376,351.031 147.5,350.5 Z"/></g>
<g><path style="opacity:1" fill="#cbd6e1" d="M 203.5,353.5 C 197.245,362.935 190.745,372.269 184,381.5C 183.333,382.833 183.333,384.167 184,385.5C 186.22,391.336 190.053,392.836 195.5,390C 202.881,381.37 209.881,372.537 216.5,363.5C 220.269,369.159 223.269,375.159 225.5,381.5C 223.457,385.746 221.957,390.413 221,395.5C 216.153,406.684 207.653,413.184 195.5,415C 170.281,414.774 158.448,401.941 160,376.5C 162.185,371.468 164.352,366.468 166.5,361.5C 169.947,359.603 173.28,357.437 176.5,355C 185.325,350.988 194.325,350.488 203.5,353.5 Z"/></g>
<g><path style="opacity:1" fill="#fe7056" d="M 323.5,399.5 C 341.836,399.333 360.17,399.5 378.5,400C 380.286,400.785 381.786,401.951 383,403.5C 383.667,411.167 383.667,418.833 383,426.5C 382.167,428.667 380.667,430.167 378.5,431C 360.167,431.667 341.833,431.667 323.5,431C 321.951,429.786 320.785,428.286 320,426.5C 319.333,418.833 319.333,411.167 320,403.5C 321.376,402.295 322.542,400.962 323.5,399.5 Z"/></g>
<g><path style="opacity:1" fill="#2b353f" d="M 95.5,471.5 C 98.1955,471.933 100.362,473.266 102,475.5C 104.343,481.81 102.176,485.81 95.5,487.5C 92.8045,487.067 90.6379,485.734 89,483.5C 86.5264,477.113 88.693,473.113 95.5,471.5 Z"/></g>
<g><path style="opacity:1" fill="#2c3640" d="M 413.5,471.5 C 421.357,472.165 424.19,476.165 422,483.5C 415.031,489.447 410.198,487.947 407.5,479C 408.582,475.753 410.582,473.253 413.5,471.5 Z"/></g>
</svg>
