<?xml version="1.0" encoding="UTF-8"?>
<!DOCTYPE svg PUBLIC "-//W3C//DTD SVG 1.1//EN" "http://www.w3.org/Graphics/SVG/1.1/DTD/svg11.dtd">
<svg xmlns="http://www.w3.org/2000/svg" version="1.1" width="512px" height="512px" style="shape-rendering:geometricPrecision; text-rendering:geometricPrecision; image-rendering:optimizeQuality; fill-rule:evenodd; clip-rule:evenodd" xmlns:xlink="http://www.w3.org/1999/xlink">
<g><path style="opacity:1" fill="#5b5b98" d="M 73.5,-0.5 C 194.833,-0.5 316.167,-0.5 437.5,-0.5C 441.811,1.6467 444.978,4.98004 447,9.5C 447.667,173.5 447.667,337.5 447,501.5C 444.978,506.02 441.811,509.353 437.5,511.5C 316.167,511.5 194.833,511.5 73.5,511.5C 69.189,509.353 66.0223,506.02 64,501.5C 63.3333,337.5 63.3333,173.5 64,9.5C 66.0223,4.98004 69.189,1.6467 73.5,-0.5 Z"/></g>
<g><path style="opacity:1" fill="#302e4f" d="M 92.5,23.5 C 100.164,22.6662 103.664,25.9995 103,33.5C 100.459,38.0685 96.6253,39.5685 91.5,38C 86.0028,32.6829 86.3361,27.8495 92.5,23.5 Z"/></g>
<g><path style="opacity:1" fill="#302e4f" d="M 412.5,23.5 C 420.164,22.6662 423.664,25.9995 423,33.5C 420.459,38.0685 416.625,39.5685 411.5,38C 406.003,32.6829 406.336,27.8495 412.5,23.5 Z"/></g>
<g><path style="opacity:1" fill="#443d66" d="M 239.5,31.5 C 314.404,28.3486 368.571,60.0153 402,126.5C 424.294,183.355 418.294,237.022 384,287.5C 383.333,307.5 383.333,327.5 384,347.5C 385.214,349.049 386.714,350.215 388.5,351C 396.167,351.333 403.833,351.667 411.5,352C 413.333,352.5 414.5,353.667 415,355.5C 415.667,374.167 415.667,392.833 415,411.5C 414.64,413.608 413.973,415.608 413,417.5C 404.636,425.53 396.636,433.863 389,442.5C 377.682,452.651 366.849,463.318 356.5,474.5C 354.507,476.499 352.173,477.999 349.5,479C 276.833,479.667 204.167,479.667 131.5,479C 129.951,477.786 128.785,476.286 128,474.5C 127.667,466.833 127.333,459.167 127,451.5C 125.786,449.951 124.286,448.785 122.5,448C 114.833,447.667 107.167,447.333 99.5,447C 97.9512,445.786 96.7845,444.286 96,442.5C 95.3333,413.5 95.3333,384.5 96,355.5C 96.5,353.667 97.6667,352.5 99.5,352C 107.167,351.667 114.833,351.333 122.5,351C 124.286,350.215 125.786,349.049 127,347.5C 127.667,327.5 127.667,307.5 127,287.5C 88.8514,230.502 85.518,171.502 117,110.5C 145.429,64.9002 186.262,38.5668 239.5,31.5 Z"/></g>
<g><path style="opacity:1" fill="#ede0dc" d="M 240.5,64.5 C 301.516,60.4253 345.682,85.7587 373,140.5C 390.087,185.468 385.087,227.801 358,267.5C 330.765,302.21 294.932,319.21 250.5,318.5C 250.932,317.29 251.599,316.29 252.5,315.5C 300.635,303.532 332.135,273.865 347,226.5C 361.047,164.775 341.88,116.275 289.5,81C 274.18,72.3934 257.847,66.8934 240.5,64.5 Z"/></g>
<g><path style="opacity:1" fill="#fef4f4" d="M 240.5,64.5 C 257.847,66.8934 274.18,72.3934 289.5,81C 341.88,116.275 361.047,164.775 347,226.5C 332.135,273.865 300.635,303.532 252.5,315.5C 265.748,297.351 279.248,279.351 293,261.5C 297.142,252.638 294.309,248.138 284.5,248C 282.667,249.833 280.833,251.667 279,253.5C 263.303,274.684 247.47,295.684 231.5,316.5C 176.94,303.774 143.107,270.107 130,215.5C 121.79,157.763 141.957,112.93 190.5,81C 205.97,71.7876 222.637,66.2876 240.5,64.5 Z"/></g>
<g><path style="opacity:1" fill="#453e66" d="M 245.5,143.5 C 275.361,140.997 294.528,153.997 303,182.5C 305.286,211.119 292.786,229.619 265.5,238C 236.343,241.52 217.51,229.353 209,201.5C 205.222,172.044 217.389,152.71 245.5,143.5 Z"/></g>
<g><path style="opacity:1" fill="#fbf1f2" d="M 249.5,175.5 C 259.718,173.395 266.884,177.062 271,186.5C 272.342,200.824 265.842,207.658 251.5,207C 239.107,201.058 236.44,192.224 243.5,180.5C 245.544,178.781 247.544,177.114 249.5,175.5 Z"/></g>
<g><path style="opacity:1" fill="#dfc7c1" d="M 252.5,315.5 C 251.599,316.29 250.932,317.29 250.5,318.5C 238.935,333.282 227.602,348.282 216.5,363.5C 209.881,372.537 202.881,381.37 195.5,390C 190.053,392.836 186.22,391.336 184,385.5C 183.333,384.167 183.333,382.833 184,381.5C 190.745,372.269 197.245,362.935 203.5,353.5C 213.551,341.743 222.884,329.41 231.5,316.5C 247.47,295.684 263.303,274.684 279,253.5C 280.833,251.667 282.667,249.833 284.5,248C 294.309,248.138 297.142,252.638 293,261.5C 279.248,279.351 265.748,297.351 252.5,315.5 Z"/></g>
<g><path style="opacity:1" fill="#302d4f" d="M 91.5,311.5 C 99.6138,310.121 103.447,313.454 103,321.5C 98,328.167 93,328.167 88,321.5C 87.1822,317.469 88.3489,314.136 91.5,311.5 Z"/></g>
<g><path style="opacity:1" fill="#302d4f" d="M 411.5,311.5 C 419.614,310.121 423.447,313.454 423,321.5C 418,328.167 413,328.167 408,321.5C 407.182,317.469 408.349,314.136 411.5,311.5 Z"/></g>
<g><path style="opacity:1" fill="#fcf2f3" d="M 203.5,353.5 C 197.245,362.935 190.745,372.269 184,381.5C 183.333,382.833 183.333,384.167 184,385.5C 186.22,391.336 190.053,392.836 195.5,390C 202.881,381.37 209.881,372.537 216.5,363.5C 226.882,379.303 225.549,394.136 212.5,408C 192.902,420.594 176.402,417.427 163,398.5C 155.448,379.152 160.615,364.319 178.5,354C 186.803,350.882 195.136,350.715 203.5,353.5 Z"/></g>
<g><path style="opacity:1" fill="#fbf1f1" d="M 124.5,375.5 C 128.95,375.142 132.45,376.808 135,380.5C 136.151,410.993 151.317,430.493 180.5,439C 221.895,441.27 244.395,421.77 248,380.5C 252.916,373.941 257.916,373.941 263,380.5C 261.422,423.081 239.588,447.915 197.5,455C 163.679,455.838 139.513,441.004 125,410.5C 121.133,400.835 119.466,390.835 120,380.5C 121.707,378.963 123.207,377.296 124.5,375.5 Z"/></g>
<g><path style="opacity:1" fill="#fef4f4" d="M 336.5,383.5 C 336.667,394.505 336.5,405.505 336,416.5C 325.605,427.063 315.105,437.396 304.5,447.5C 300.154,447.666 295.821,447.499 291.5,447C 289.951,445.786 288.785,444.286 288,442.5C 287.333,424.167 287.333,405.833 288,387.5C 289.167,386.333 290.333,385.167 291.5,384C 306.496,383.5 321.496,383.333 336.5,383.5 Z"/></g>
<g><path style="opacity:1" fill="#ede0dc" d="M 336.5,383.5 C 345.173,383.334 353.84,383.5 362.5,384C 364.286,384.785 365.786,385.951 367,387.5C 367.667,396.833 367.667,406.167 367,415.5C 357.833,426 348,435.833 337.5,445C 335.913,445.862 334.246,446.529 332.5,447C 323.173,447.5 313.839,447.666 304.5,447.5C 315.105,437.396 325.605,427.063 336,416.5C 336.5,405.505 336.667,394.505 336.5,383.5 Z"/></g>
<g><path style="opacity:1" fill="#302d4f" d="M 91.5,472.5 C 98.253,470.772 102.253,473.272 103.5,480C 101.971,485.602 98.304,487.935 92.5,487C 86.1923,482.615 85.859,477.782 91.5,472.5 Z"/></g>
<g><path style="opacity:1" fill="#302d4f" d="M 411.5,472.5 C 418.253,470.772 422.253,473.272 423.5,480C 421.971,485.602 418.304,487.935 412.5,487C 406.192,482.615 405.859,477.782 411.5,472.5 Z"/></g>
</svg>
