<?xml version="1.0" encoding="UTF-8"?>
<!DOCTYPE svg PUBLIC "-//W3C//DTD SVG 1.1//EN" "http://www.w3.org/Graphics/SVG/1.1/DTD/svg11.dtd">
<svg xmlns="http://www.w3.org/2000/svg" version="1.1" width="512px" height="512px" style="shape-rendering:geometricPrecision; text-rendering:geometricPrecision; image-rendering:optimizeQuality; fill-rule:evenodd; clip-rule:evenodd" xmlns:xlink="http://www.w3.org/1999/xlink">
<g><path style="opacity:0.998" fill="#c4d2dc" d="M 75.5,-0.5 C 187.167,-0.5 298.833,-0.5 410.5,-0.5C 423.483,3.65084 431.983,12.3175 436,25.5C 436.5,164.5 436.667,303.5 436.5,442.5C 316.666,442.167 196.999,442.5 77.5,443.5C 64.7169,440.728 55.7169,445.061 50.5,456.5C 50.3333,312.5 50.5,168.5 51,24.5C 54.6829,11.6514 62.8496,3.31807 75.5,-0.5 Z"/></g>
<g><path style="opacity:1" fill="#abc1d1" d="M 410.5,-0.5 C 418.833,-0.5 427.167,-0.5 435.5,-0.5C 448.15,3.31807 456.317,11.6514 460,24.5C 460.5,168.166 460.667,311.833 460.5,455.5C 458.35,449.852 454.35,446.019 448.5,444C 440.173,443.5 431.84,443.334 423.5,443.5C 335.833,443.5 248.167,443.5 160.5,443.5C 155.5,443.5 150.5,443.5 145.5,443.5C 139.167,443.5 132.833,443.5 126.5,443.5C 121.5,443.5 116.5,443.5 111.5,443.5C 105.167,443.5 98.8333,443.5 92.5,443.5C 87.5,443.5 82.5,443.5 77.5,443.5C 196.999,442.5 316.666,442.167 436.5,442.5C 436.667,303.5 436.5,164.5 436,25.5C 431.983,12.3175 423.483,3.65084 410.5,-0.5 Z"/></g>
<g><path style="opacity:1" fill="#2f3f51" d="M 82.5,25.5 C 87.6278,25.1115 92.6278,25.6115 97.5,27C 100.394,29.9087 101.227,33.4087 100,37.5C 98.786,39.0488 97.286,40.2155 95.5,41C 90.3822,41.888 85.3822,41.5547 80.5,40C 76.1692,34.4822 76.8359,29.6488 82.5,25.5 Z"/></g>
<g><path style="opacity:1" fill="#2f3f51" d="M 415.5,25.5 C 421.173,24.8386 426.506,25.6719 431.5,28C 434.916,33.464 433.916,37.7973 428.5,41C 423.833,41.6667 419.167,41.6667 414.5,41C 408.939,35.3527 409.272,30.186 415.5,25.5 Z"/></g>
<g><path style="opacity:1" fill="#2b3b4d" d="M 331.5,33.5 C 333.273,34.8923 335.273,36.059 337.5,37C 358,57.5 378.5,78 399,98.5C 400,100.5 401,102.5 402,104.5C 402.667,192.5 402.667,280.5 402,368.5C 401.602,371.232 400.102,373.065 397.5,374C 404.826,374.5 412.159,374.666 419.5,374.5C 408.932,375.188 398.265,375.855 387.5,376.5C 380.011,375.344 372.345,375.178 364.5,376C 362.448,376.93 360.948,378.43 360,380.5C 359.667,388.5 359.333,396.5 359,404.5C 357.833,405.667 356.667,406.833 355.5,408C 362.826,408.5 370.159,408.666 377.5,408.5C 365.678,409.495 353.678,409.828 341.5,409.5C 341.666,400.161 341.5,390.827 341,381.5C 340.21,377.872 338.043,375.872 334.5,375.5C 310.337,374.337 286.003,374.17 261.5,375C 259.376,376.122 257.543,377.622 256,379.5C 255.5,389.494 255.334,399.494 255.5,409.5C 214.832,409.667 174.165,409.5 133.5,409C 130.572,407.74 128.739,405.573 128,402.5C 127.667,395.167 127.333,387.833 127,380.5C 125.749,377.619 123.583,375.786 120.5,375C 110.167,374.667 99.8333,374.333 89.5,374C 87.2739,372.773 85.7739,370.939 85,368.5C 84.3333,355.5 84.3333,342.5 85,329.5C 86.1667,327 88,325.167 90.5,324C 98.9358,323.94 107.269,323.273 115.5,322C 118.028,319.427 119.028,316.261 118.5,312.5C 118.333,310.167 118.167,307.833 118,305.5C 81.7793,253.418 75.1126,197.751 98,138.5C 125.352,80.1571 170.852,45.6571 234.5,35C 266.805,33.5602 299.138,33.0602 331.5,33.5 Z"/></g>
<g><path style="opacity:1" fill="#222f3d" d="M 331.5,33.5 C 339.174,33.3336 346.841,33.5003 354.5,34C 356.949,34.7246 359.283,35.7246 361.5,37C 382,57.5 402.5,78 423,98.5C 424.275,100.717 425.275,103.051 426,105.5C 426.667,193.167 426.667,280.833 426,368.5C 425.246,372.089 423.079,374.089 419.5,374.5C 412.159,374.666 404.826,374.5 397.5,374C 400.102,373.065 401.602,371.232 402,368.5C 402.667,280.5 402.667,192.5 402,104.5C 401,102.5 400,100.5 399,98.5C 378.5,78 358,57.5 337.5,37C 335.273,36.059 333.273,34.8923 331.5,33.5 Z"/></g>
<g><path style="opacity:1" fill="#c4d2dc" d="M 244.5,68.5 C 290.454,74.0491 325.62,96.3824 350,135.5C 379.756,193.599 373.756,247.599 332,297.5C 308.798,321.854 280.631,335.52 247.5,338.5C 269.807,327.347 292.14,316.18 314.5,305C 324.077,297.847 325.911,289.014 320,278.5C 314.931,273.052 308.764,271.219 301.5,273C 265.601,291.116 229.601,308.949 193.5,326.5C 137.389,293.609 113.222,244.609 121,179.5C 133.998,122.835 168.498,86.6682 224.5,71C 231.12,69.7645 237.787,68.9311 244.5,68.5 Z"/></g>
<g><path style="opacity:1" fill="#aac0cf" d="M 244.5,68.5 C 294.614,65.4719 335.114,83.8053 366,123.5C 399.848,174.632 401.182,226.632 370,279.5C 339.387,322.388 297.553,342.721 244.5,340.5C 245.29,339.599 246.29,338.932 247.5,338.5C 280.631,335.52 308.798,321.854 332,297.5C 373.756,247.599 379.756,193.599 350,135.5C 325.62,96.3824 290.454,74.0491 244.5,68.5 Z"/></g>
<g><path style="opacity:1" fill="#8e9dad" d="M 248.5,153.5 C 277.936,152.107 297.103,165.44 306,193.5C 308.806,230.589 291.806,251.256 255,255.5C 251.45,255.42 247.95,255.086 244.5,254.5C 274.795,243.26 286.962,221.593 281,189.5C 274.833,172.667 263.333,161.167 246.5,155C 247.416,154.722 248.082,154.222 248.5,153.5 Z"/></g>
<g><path style="opacity:1" fill="#9eabb9" d="M 248.5,153.5 C 248.082,154.222 247.416,154.722 246.5,155C 263.333,161.167 274.833,172.667 281,189.5C 286.962,221.593 274.795,243.26 244.5,254.5C 215.598,245.063 202.431,225.063 205,194.5C 210.946,171.72 225.446,158.053 248.5,153.5 Z"/></g>
<g><path style="opacity:1" fill="#2c3c4e" d="M 244.5,217.5 C 245.38,214.738 246.546,212.071 248,209.5C 249.364,202.925 248.198,196.925 244.5,191.5C 245.749,189.864 247.416,188.697 249.5,188C 263.252,185.274 270.919,190.774 272.5,204.5C 272.168,211.654 268.835,216.821 262.5,220C 255.957,222.553 249.957,221.719 244.5,217.5 Z"/></g>
<g><path style="opacity:1" fill="#364a5f" d="M 244.5,191.5 C 248.198,196.925 249.364,202.925 248,209.5C 246.546,212.071 245.38,214.738 244.5,217.5C 236.656,208.784 236.656,200.117 244.5,191.5 Z"/></g>
<g><path style="opacity:1" fill="#6aaaef" d="M 247.5,338.5 C 246.29,338.932 245.29,339.599 244.5,340.5C 223.833,350.5 203.167,360.5 182.5,370.5C 190.687,358.809 188.687,349.309 176.5,342C 172.848,341.501 169.182,341.335 165.5,341.5C 174.833,336.5 184.167,331.5 193.5,326.5C 229.601,308.949 265.601,291.116 301.5,273C 308.764,271.219 314.931,273.052 320,278.5C 325.911,289.014 324.077,297.847 314.5,305C 292.14,316.18 269.807,327.347 247.5,338.5 Z"/></g>
<g><path style="opacity:1" fill="#6bce9d" d="M 381.5,298.5 C 387.105,297.908 392.439,298.741 397.5,301C 400.916,306.464 399.916,310.797 394.5,314C 389.833,314.667 385.167,314.667 380.5,314C 373.768,308.463 374.101,303.296 381.5,298.5 Z"/></g>
<g><path style="opacity:1" fill="#6cd19f" d="M 379.5,333.5 C 385.621,333.09 391.621,333.59 397.5,335C 400.916,340.464 399.916,344.797 394.5,348C 389.051,348.896 383.718,348.563 378.5,347C 374.419,342.218 374.752,337.718 379.5,333.5 Z"/></g>
<g><path style="opacity:1" fill="#c3d1dc" d="M 165.5,341.5 C 169.182,341.335 172.848,341.501 176.5,342C 188.687,349.309 190.687,358.809 182.5,370.5C 172.822,376.666 163.988,375.666 156,367.5C 150.088,355.263 153.254,346.596 165.5,341.5 Z"/></g>
<g><path style="opacity:1" fill="#6dd2a0" d="M 334.5,375.5 C 327.492,375.334 320.492,375.5 313.5,376C 314.667,377.167 315.833,378.333 317,379.5C 317.5,389.494 317.666,399.494 317.5,409.5C 296.833,409.5 276.167,409.5 255.5,409.5C 255.334,399.494 255.5,389.494 256,379.5C 257.543,377.622 259.376,376.122 261.5,375C 286.003,374.17 310.337,374.337 334.5,375.5 Z"/></g>
<g><path style="opacity:1" fill="#47c98c" d="M 334.5,375.5 C 338.043,375.872 340.21,377.872 341,381.5C 341.5,390.827 341.666,400.161 341.5,409.5C 333.5,409.5 325.5,409.5 317.5,409.5C 317.666,399.494 317.5,389.494 317,379.5C 315.833,378.333 314.667,377.167 313.5,376C 320.492,375.5 327.492,375.334 334.5,375.5 Z"/></g>
<g><path style="opacity:1" fill="#222f3d" d="M 387.5,376.5 C 385.827,377.343 384.66,378.676 384,380.5C 383.667,388.167 383.333,395.833 383,403.5C 381.924,406.079 380.091,407.746 377.5,408.5C 370.159,408.666 362.826,408.5 355.5,408C 356.667,406.833 357.833,405.667 359,404.5C 359.333,396.5 359.667,388.5 360,380.5C 360.948,378.43 362.448,376.93 364.5,376C 372.345,375.178 380.011,375.344 387.5,376.5 Z"/></g>
<g><path style="opacity:1" fill="#2c3c4e" d="M 81.5,401.5 C 87.2896,401.096 92.9562,401.596 98.5,403C 102.862,412.773 99.6955,417.273 89,416.5C 79.9169,418.084 76.2502,414.417 78,405.5C 79.3756,404.295 80.5423,402.962 81.5,401.5 Z"/></g>
<g><path style="opacity:1" fill="#2c3c4e" d="M 414.5,401.5 C 419.959,401.103 425.292,401.603 430.5,403C 433.886,406.373 434.386,410.206 432,414.5C 428.902,416.047 425.569,416.714 422,416.5C 412.917,418.084 409.25,414.417 411,405.5C 411.69,403.65 412.856,402.316 414.5,401.5 Z"/></g>
<g><path style="opacity:0.99" fill="#9daab8" d="M 77.5,443.5 C 77.5,466.167 77.5,488.833 77.5,511.5C 72.1667,511.5 66.8333,511.5 61.5,511.5C 56.5465,509.377 53.0465,505.71 51,500.5C 50.5001,485.837 50.3334,471.17 50.5,456.5C 55.7169,445.061 64.7169,440.728 77.5,443.5 Z"/></g>
<g><path style="opacity:1" fill="#2b3b4d" d="M 77.5,443.5 C 82.5,443.5 87.5,443.5 92.5,443.5C 92.5,466.167 92.5,488.833 92.5,511.5C 87.5,511.5 82.5,511.5 77.5,511.5C 77.5,488.833 77.5,466.167 77.5,443.5 Z"/></g>
<g><path style="opacity:1" fill="#9daab8" d="M 92.5,443.5 C 98.8333,443.5 105.167,443.5 111.5,443.5C 111.5,466.167 111.5,488.833 111.5,511.5C 105.167,511.5 98.8333,511.5 92.5,511.5C 92.5,488.833 92.5,466.167 92.5,443.5 Z"/></g>
<g><path style="opacity:1" fill="#2b3b4d" d="M 111.5,443.5 C 116.5,443.5 121.5,443.5 126.5,443.5C 126.5,466.167 126.5,488.833 126.5,511.5C 121.5,511.5 116.5,511.5 111.5,511.5C 111.5,488.833 111.5,466.167 111.5,443.5 Z"/></g>
<g><path style="opacity:1" fill="#9daab8" d="M 126.5,443.5 C 132.833,443.5 139.167,443.5 145.5,443.5C 145.5,466.167 145.5,488.833 145.5,511.5C 139.167,511.5 132.833,511.5 126.5,511.5C 126.5,488.833 126.5,466.167 126.5,443.5 Z"/></g>
<g><path style="opacity:1" fill="#2b3b4d" d="M 145.5,443.5 C 150.5,443.5 155.5,443.5 160.5,443.5C 160.5,466.167 160.5,488.833 160.5,511.5C 155.5,511.5 150.5,511.5 145.5,511.5C 145.5,488.833 145.5,466.167 145.5,443.5 Z"/></g>
<g><path style="opacity:1" fill="#9eabb9" d="M 160.5,443.5 C 248.167,443.5 335.833,443.5 423.5,443.5C 429.688,445.184 433.855,449.184 436,455.5C 436.167,462.667 436.333,469.833 436.5,477C 436.604,485.559 436.104,494.059 435,502.5C 432.532,506.801 429.032,509.801 424.5,511.5C 387.833,511.5 351.167,511.5 314.5,511.5C 314.666,501.494 314.5,491.494 314,481.5C 312.167,475.667 308.333,471.833 302.5,470C 271.167,469.333 239.833,469.333 208.5,470C 202.64,471.859 198.807,475.693 197,481.5C 196.5,491.494 196.334,501.494 196.5,511.5C 184.5,511.5 172.5,511.5 160.5,511.5C 160.5,488.833 160.5,466.167 160.5,443.5 Z"/></g>
<g><path style="opacity:1" fill="#8e9dad" d="M 423.5,443.5 C 431.84,443.334 440.173,443.5 448.5,444C 454.35,446.019 458.35,449.852 460.5,455.5C 460.667,470.504 460.5,485.504 460,500.5C 457.954,505.71 454.454,509.377 449.5,511.5C 441.167,511.5 432.833,511.5 424.5,511.5C 429.032,509.801 432.532,506.801 435,502.5C 436.104,494.059 436.604,485.559 436.5,477C 436.333,469.833 436.167,462.667 436,455.5C 433.855,449.184 429.688,445.184 423.5,443.5 Z"/></g>
<g><path style="opacity:1" fill="#8e9dad" d="M 314.5,511.5 C 309.167,511.5 303.833,511.5 298.5,511.5C 298.5,502.833 298.5,494.167 298.5,485.5C 269.833,485.5 241.167,485.5 212.5,485.5C 212.5,494.167 212.5,502.833 212.5,511.5C 207.167,511.5 201.833,511.5 196.5,511.5C 196.334,501.494 196.5,491.494 197,481.5C 198.807,475.693 202.64,471.859 208.5,470C 239.833,469.333 271.167,469.333 302.5,470C 308.333,471.833 312.167,475.667 314,481.5C 314.5,491.494 314.666,501.494 314.5,511.5 Z"/></g>
<g><path style="opacity:1" fill="#6fd3a1" d="M 355.5,469.5 C 362.841,469.334 370.174,469.5 377.5,470C 381.861,472.226 383.361,475.726 382,480.5C 380.891,482.815 379.057,484.315 376.5,485C 369.5,485.667 362.5,485.667 355.5,485C 350.931,482.459 349.431,478.625 351,473.5C 352.397,471.93 353.897,470.596 355.5,469.5 Z"/></g>
<g><path style="opacity:1" fill="#eb6464" d="M 406.5,469.5 C 413.841,469.334 421.174,469.5 428.5,470C 433.143,472.072 434.643,475.572 433,480.5C 432.167,482.667 430.667,484.167 428.5,485C 421.167,485.667 413.833,485.667 406.5,485C 399.888,479.836 399.888,474.67 406.5,469.5 Z"/></g>
<g><path style="opacity:1" fill="#9eacb9" d="M 298.5,511.5 C 269.833,511.5 241.167,511.5 212.5,511.5C 212.5,502.833 212.5,494.167 212.5,485.5C 241.167,485.5 269.833,485.5 298.5,485.5C 298.5,494.167 298.5,502.833 298.5,511.5 Z"/></g>
</svg>
