<svg version="1.1" id="Layer_1" xmlns="http://www.w3.org/2000/svg" xmlns:xlink="http://www.w3.org/1999/xlink" x="0px" y="0px"
	 width="100%" viewBox="0 0 512 512" enable-background="new 0 0 512 512" xml:space="preserve">
<path fill="#000000" opacity="1.000000" stroke="none" 
	d="
M513.000000,204.000000 
	C513.000000,307.308228 513.000000,410.116455 513.000000,512.962341 
	C342.400085,512.962341 171.800186,512.962341 1.100134,512.962341 
	C1.100134,342.441803 1.100134,171.883514 1.100134,1.162619 
	C171.666534,1.162619 342.333252,1.162619 513.000000,1.162619 
	C513.000000,68.533112 513.000000,136.016556 513.000000,204.000000 
M398.866089,36.394070 
	C395.575165,33.204510 392.284271,30.014946 388.982330,26.137934 
	C381.275635,19.173695 373.568939,12.209456 366.263214,5.607572 
	C350.657104,20.885624 333.849091,37.340332 316.427490,54.108253 
	C212.213257,158.360367 107.999008,262.612488 3.607226,367.042206 
	C20.184885,383.634338 36.418579,399.889893 52.661854,416.135864 
	C59.433659,422.908783 59.485046,422.942017 66.111404,416.366730 
	C77.200409,405.363220 94.392563,408.642731 101.803688,422.655945 
	C106.327225,431.209198 104.278946,441.125427 97.159828,448.348297 
	C90.227112,455.382172 90.123055,453.580994 97.249107,460.732574 
	C112.539032,476.077240 127.871780,491.379272 143.198990,506.686768 
	C144.436523,507.922699 145.765884,509.066711 147.450089,510.620117 
	C148.551926,509.275024 149.220474,508.300049 150.042175,507.478180 
	C252.538681,404.957947 355.046936,302.449463 457.546814,199.932617 
	C458.480835,198.998428 459.311066,197.960495 460.746918,196.656372 
	C477.196411,180.112228 493.645905,163.568085 510.482056,146.635071 
	C504.291351,140.572250 498.300049,134.630630 492.209167,128.792923 
	C490.731689,127.376831 488.926056,126.303146 486.927124,124.460091 
	C483.563232,120.950363 480.199341,117.440636 476.750427,113.276703 
	C472.055847,108.559525 467.365479,103.838120 462.665588,99.126213 
	C456.013947,92.457474 456.010925,92.460426 448.934784,98.595558 
	C448.809052,98.704575 448.693787,98.828972 448.556671,98.920982 
	C445.296692,101.109253 442.054932,101.516243 439.073029,98.517944 
	C436.174500,95.603508 436.152039,91.395012 439.049896,88.534081 
	C441.150085,86.460617 443.456146,84.595673 446.071350,82.283234 
	C438.107483,74.428093 430.912354,67.299622 423.658173,60.231754 
	C423.028625,59.618389 422.010040,59.404358 420.864746,58.391949 
	C417.565308,55.191196 414.265869,51.990444 410.966583,48.107201 
	C407.035950,44.407063 403.105347,40.706921 398.866089,36.394070 
z"/>
<path fill="#50B86B" opacity="1.000000" stroke="none" 
	d="
M460.189789,196.971008 
	C459.311066,197.960495 458.480835,198.998428 457.546814,199.932617 
	C355.046936,302.449463 252.538681,404.957947 150.042175,507.478180 
	C149.220474,508.300049 148.551926,509.275024 147.450089,510.620117 
	C145.765884,509.066711 144.436523,507.922699 143.198990,506.686768 
	C127.871780,491.379272 112.539032,476.077240 97.249107,460.732574 
	C90.123055,453.580994 90.227112,455.382172 97.159828,448.348297 
	C104.278946,441.125427 106.327225,431.209198 101.803688,422.655945 
	C94.392563,408.642731 77.200409,405.363220 66.111404,416.366730 
	C59.485046,422.942017 59.433659,422.908783 52.661854,416.135864 
	C36.418579,399.889893 20.184885,383.634338 3.607226,367.042206 
	C107.999008,262.612488 212.213257,158.360367 316.887238,54.259346 
	C317.905853,55.026413 318.439697,55.667408 319.027161,56.254791 
	C364.955994,102.178413 410.887604,148.099213 456.830292,194.008926 
	C457.884277,195.062164 459.067078,195.986526 460.189789,196.971008 
M99.288017,333.024414 
	C80.344902,328.939758 65.387222,344.755005 71.033257,363.697540 
	C75.610214,375.148315 85.487343,380.808655 97.616394,378.931702 
	C107.712936,377.369263 115.884155,368.271149 116.845970,357.520813 
	C117.806633,346.783264 111.031403,336.947876 99.288017,333.024414 
M136.084702,428.697266 
	C140.576889,440.047607 150.030212,445.613281 162.122406,444.027100 
	C172.173019,442.708679 180.451614,434.140503 181.818542,423.641998 
	C183.228973,412.809448 176.895203,402.699402 165.497986,398.262756 
	C148.573730,392.788940 129.916824,407.998840 136.084702,428.697266 
M284.723236,295.336609 
	C257.243378,267.845123 229.763489,240.353653 202.516235,213.094894 
	C196.224884,219.158295 190.603104,224.576385 184.380310,230.281158 
	C179.251938,235.418228 174.123550,240.555283 169.805130,244.881027 
	C202.962723,278.044281 235.728989,310.816132 268.057831,343.150513 
	C278.403839,332.795410 289.281036,321.908661 299.739868,311.440643 
	C295.111176,306.519562 290.106293,301.198486 284.723236,295.336609 
M278.837799,180.613831 
	C286.129120,187.956421 293.420410,195.299011 300.118347,202.945557 
	C296.675934,206.225800 293.233521,209.506042 289.823059,212.755829 
	C293.753143,216.824631 297.176514,220.368835 301.119141,224.450638 
	C304.687531,220.559296 308.016205,216.929352 311.853363,213.624390 
	C318.899384,220.818878 325.945435,228.013367 332.561157,235.684616 
	C329.221863,239.040115 325.882538,242.395615 323.083313,245.208420 
	C326.939117,249.502686 330.217163,253.153519 334.507477,257.931702 
	C338.022430,253.882980 341.177399,250.248901 344.925903,246.925247 
	C348.042847,250.587631 351.159760,254.250015 353.713348,257.250488 
	C378.624054,232.349823 402.387146,208.596344 426.481567,184.511642 
	C421.738007,179.979248 416.478210,174.953568 410.883118,169.337570 
	C383.390228,141.868118 355.897369,114.398659 328.455383,86.980064 
	C309.746033,105.497719 291.337189,123.717926 272.321259,142.211456 
	C267.075134,147.460831 261.829041,152.710190 255.645294,158.897766 
	C260.005554,162.782272 263.851288,166.208389 267.105469,169.939499 
	C263.656647,173.207993 260.207794,176.476486 257.541931,179.002945 
	C261.458618,183.226334 264.888275,186.924545 268.625793,190.954727 
	C271.867737,187.390503 275.095764,183.841553 278.837799,180.613831 
M119.304329,295.221405 
	C113.971626,300.672241 108.638916,306.123077 104.200180,310.660126 
	C137.197418,343.653656 170.106949,376.559448 202.574265,409.023102 
	C218.275742,393.268646 234.572510,376.916931 251.357193,360.075623 
	C246.258316,355.231293 240.750504,349.998444 234.898361,344.195068 
	C207.526520,316.884644 180.154694,289.574219 152.969910,262.450439 
	C141.701843,273.528687 130.805038,284.241913 119.304329,295.221405 
M308.525757,286.974579 
	C310.938660,290.133636 313.351532,293.292664 315.548248,296.168671 
	C320.805023,291.221252 324.400024,287.837799 327.124573,285.273560 
	C294.100342,252.249207 261.318756,219.467499 229.036667,187.185287 
	C226.062393,189.931137 222.457016,193.259628 218.410965,196.994965 
	C248.398926,226.937820 278.212311,256.706360 308.525757,286.974579 
z"/>
<path fill="#FDD783" opacity="1.000000" stroke="none" 
	d="
M460.468353,196.813690 
	C459.067078,195.986526 457.884277,195.062164 456.830292,194.008926 
	C410.887604,148.099213 364.955994,102.178413 319.027161,56.254791 
	C318.439697,55.667408 317.905853,55.026413 317.194031,54.102737 
	C333.849091,37.340332 350.657104,20.885624 366.263214,5.607572 
	C373.568939,12.209456 381.275635,19.173695 388.654633,26.582174 
	C379.698334,36.381298 371.069733,45.736179 362.478149,55.050915 
	C364.926239,57.600769 368.414642,61.234165 372.206879,65.184036 
	C379.127228,58.232979 385.836060,51.589226 392.423798,44.827473 
	C394.822632,42.365280 396.932831,39.621895 399.174713,37.006783 
	C403.105347,40.706921 407.035950,44.407063 410.626495,48.534546 
	C401.688782,58.351906 393.091156,67.741913 384.448547,77.181053 
	C386.799255,79.584335 390.328308,83.192368 394.199463,87.150108 
	C400.374817,80.939812 406.388916,75.003181 412.267120,68.934868 
	C415.358215,65.743752 418.211487,62.322281 421.172150,59.004837 
	C422.010040,59.404358 423.028625,59.618389 423.658173,60.231754 
	C430.912354,67.299622 438.107483,74.428093 446.071350,82.283234 
	C443.456146,84.595673 441.150085,86.460617 439.049896,88.534081 
	C436.152039,91.395012 436.174500,95.603508 439.073029,98.517944 
	C442.054932,101.516243 445.296692,101.109253 448.556671,98.920982 
	C448.693787,98.828972 448.809052,98.704575 448.934784,98.595558 
	C456.010925,92.460426 456.013947,92.457474 462.665588,99.126213 
	C467.365479,103.838120 472.055847,108.559525 476.506073,113.765625 
	C467.238403,123.467377 458.215088,132.680222 449.120636,141.965698 
	C452.532288,145.460495 455.965271,148.977112 459.108002,152.196426 
	C468.664398,142.992569 477.967865,134.032303 487.271362,125.072014 
	C488.926056,126.303146 490.731689,127.376831 492.209167,128.792923 
	C498.300049,134.630630 504.291351,140.572250 510.482056,146.635071 
	C493.645905,163.568085 477.196411,180.112228 460.468353,196.813690 
z"/>
<path fill="#E16113" opacity="1.000000" stroke="none" 
	d="
M421.018433,58.698395 
	C418.211487,62.322281 415.358215,65.743752 412.267120,68.934868 
	C406.388916,75.003181 400.374817,80.939812 394.199463,87.150108 
	C390.328308,83.192368 386.799255,79.584335 384.448547,77.181053 
	C393.091156,67.741913 401.688782,58.351906 410.626404,48.875793 
	C414.265869,51.990444 417.565308,55.191196 421.018433,58.698395 
z"/>
<path fill="#E16113" opacity="1.000000" stroke="none" 
	d="
M399.020386,36.700432 
	C396.932831,39.621895 394.822632,42.365280 392.423798,44.827473 
	C385.836060,51.589226 379.127228,58.232979 372.206879,65.184036 
	C368.414642,61.234165 364.926239,57.600769 362.478149,55.050915 
	C371.069733,45.736179 379.698334,36.381298 388.660156,26.925900 
	C392.284271,30.014946 395.575165,33.204510 399.020386,36.700432 
z"/>
<path fill="#E05F11" opacity="1.000000" stroke="none" 
	d="
M487.099243,124.766060 
	C477.967865,134.032303 468.664398,142.992569 459.108002,152.196426 
	C455.965271,148.977112 452.532288,145.460495 449.120636,141.965698 
	C458.215088,132.680222 467.238403,123.467377 476.548584,114.092728 
	C480.199341,117.440636 483.563232,120.950363 487.099243,124.766060 
z"/>
<path fill="#ECECEC" opacity="1.000000" stroke="none" 
	d="
M272.928406,141.938141 
	C291.337189,123.717926 309.746033,105.497719 328.455383,86.980064 
	C355.897369,114.398659 383.390228,141.868118 410.750458,169.805359 
	C399.273438,181.507492 387.931610,192.744354 376.584106,203.975525 
	C364.053680,216.377487 346.885834,216.384918 334.402252,203.930405 
	C315.088562,184.661591 295.809143,165.358414 276.534454,146.050537 
	C275.249115,144.762939 274.126648,143.312744 272.928406,141.938141 
z"/>
<path fill="#ECECEC" opacity="1.000000" stroke="none" 
	d="
M119.908211,294.955139 
	C130.805038,284.241913 141.701843,273.528687 152.969910,262.450439 
	C180.154694,289.574219 207.526520,316.884644 234.878860,344.778503 
	C231.155869,349.178955 227.505402,353.049164 223.739319,356.803375 
	C210.543228,369.957886 193.550888,370.029785 180.421066,356.941284 
	C161.455780,338.035675 142.528641,319.091644 123.643280,300.106262 
	C122.165550,298.620667 121.142532,296.682770 119.908211,294.955139 
z"/>
<path fill="#CBCCCC" opacity="1.000000" stroke="none" 
	d="
M272.624817,142.074814 
	C274.126648,143.312744 275.249115,144.762939 276.534454,146.050537 
	C295.809143,165.358414 315.088562,184.661591 334.402252,203.930405 
	C346.885834,216.384918 364.053680,216.377487 376.584106,203.975525 
	C387.931610,192.744354 399.273438,181.507492 410.918091,170.100510 
	C416.478210,174.953568 421.738007,179.979248 426.481567,184.511642 
	C402.387146,208.596344 378.624054,232.349823 353.713348,257.250488 
	C351.159760,254.250015 348.042847,250.587631 344.475800,246.491547 
	C340.347626,242.441177 336.669525,238.824509 332.991455,235.207840 
	C325.945435,228.013367 318.899384,220.818878 311.350952,213.179016 
	C307.469635,209.369644 304.090668,206.005615 300.711731,202.641602 
	C293.420410,195.299011 286.129120,187.956421 278.333679,180.171875 
	C274.452026,176.364777 271.074524,172.999634 267.697021,169.634491 
	C263.851288,166.208389 260.005554,162.782272 255.645294,158.897766 
	C261.829041,152.710190 267.075134,147.460831 272.624817,142.074814 
z"/>
<path fill="#CBCCCB" opacity="1.000000" stroke="none" 
	d="
M119.606255,295.088257 
	C121.142532,296.682770 122.165550,298.620667 123.643280,300.106262 
	C142.528641,319.091644 161.455780,338.035675 180.421066,356.941284 
	C193.550888,370.029785 210.543228,369.957886 223.739319,356.803375 
	C227.505402,353.049164 231.155869,349.178955 235.051025,345.063782 
	C240.750504,349.998444 246.258316,355.231293 251.357193,360.075623 
	C234.572510,376.916931 218.275742,393.268646 202.574265,409.023102 
	C170.106949,376.559448 137.197418,343.653656 104.200180,310.660126 
	C108.638916,306.123077 113.971626,300.672241 119.606255,295.088257 
z"/>
<path fill="#153541" opacity="1.000000" stroke="none" 
	d="
M285.101440,295.877411 
	C290.106293,301.198486 295.111176,306.519562 299.739868,311.440643 
	C289.281036,321.908661 278.403839,332.795410 268.057831,343.150513 
	C235.728989,310.816132 202.962723,278.044281 169.805130,244.881027 
	C174.123550,240.555283 179.251938,235.418228 184.950958,230.332642 
	C186.975220,231.754837 188.472015,233.082870 189.875992,234.502686 
	C211.078827,255.944977 232.257965,277.410706 253.483017,298.830994 
	C255.349075,300.714203 257.351959,302.533173 259.541626,304.011017 
	C266.028442,308.389130 272.453156,307.736115 278.175690,302.358948 
	C280.479919,300.193787 282.792603,298.037659 285.101440,295.877411 
z"/>
<path fill="#3A4D5C" opacity="1.000000" stroke="none" 
	d="
M284.912354,295.606995 
	C282.792603,298.037659 280.479919,300.193787 278.175690,302.358948 
	C272.453156,307.736115 266.028442,308.389130 259.541626,304.011017 
	C257.351959,302.533173 255.349075,300.714203 253.483017,298.830994 
	C232.257965,277.410706 211.078827,255.944977 189.875992,234.502686 
	C188.472015,233.082870 186.975220,231.754837 185.251465,230.189285 
	C190.603104,224.576385 196.224884,219.158295 202.516235,213.094894 
	C229.763489,240.353653 257.243378,267.845123 284.912354,295.606995 
z"/>
<path fill="#153742" opacity="1.000000" stroke="none" 
	d="
M308.275726,286.724731 
	C278.212311,256.706360 248.398926,226.937820 218.410965,196.994965 
	C222.457016,193.259628 226.062393,189.931137 229.036667,187.185287 
	C261.318756,219.467499 294.100342,252.249207 327.124573,285.273560 
	C324.400024,287.837799 320.805023,291.221252 315.548248,296.168671 
	C313.351532,293.292664 310.938660,290.133636 308.275726,286.724731 
z"/>
<path fill="#153542" opacity="1.000000" stroke="none" 
	d="
M166.153885,398.637848 
	C176.895203,402.699402 183.228973,412.809448 181.818542,423.641998 
	C180.451614,434.140503 172.173019,442.708679 162.122406,444.027100 
	C150.030212,445.613281 140.576889,440.047607 136.517303,428.335938 
	C138.282211,427.990997 139.614456,428.015686 140.946793,428.022400 
	C154.587128,428.091248 163.280731,420.904755 165.564423,407.468445 
	C166.056183,404.575073 165.972504,401.583954 166.153885,398.637848 
z"/>
<path fill="#153542" opacity="1.000000" stroke="none" 
	d="
M100.111649,333.228180 
	C111.031403,336.947876 117.806633,346.783264 116.845970,357.520813 
	C115.884155,368.271149 107.712936,377.369263 97.616394,378.931702 
	C85.487343,380.808655 75.610214,375.148315 71.460297,363.331268 
	C75.842247,362.717682 79.938408,363.044006 83.724602,362.111633 
	C93.638359,359.670319 103.239731,349.687439 100.111649,333.228180 
z"/>
<path fill="#3A4E5C" opacity="1.000000" stroke="none" 
	d="
M99.699829,333.126282 
	C103.239731,349.687439 93.638359,359.670319 83.724602,362.111633 
	C79.938408,363.044006 75.842247,362.717682 71.424133,362.970276 
	C65.387222,344.755005 80.344902,328.939758 99.699829,333.126282 
z"/>
<path fill="#3A4E5C" opacity="1.000000" stroke="none" 
	d="
M165.825928,398.450317 
	C165.972504,401.583954 166.056183,404.575073 165.564423,407.468445 
	C163.280731,420.904755 154.587128,428.091248 140.946793,428.022400 
	C139.614456,428.015686 138.282211,427.990997 136.491791,427.976013 
	C129.916824,407.998840 148.573730,392.788940 165.825928,398.450317 
z"/>
<path fill="#183944" opacity="1.000000" stroke="none" 
	d="
M300.415039,202.793579 
	C304.090668,206.005615 307.469635,209.369644 311.096741,213.016541 
	C308.016205,216.929352 304.687531,220.559296 301.119141,224.450638 
	C297.176514,220.368835 293.753143,216.824631 289.823059,212.755829 
	C293.233521,209.506042 296.675934,206.225800 300.415039,202.793579 
z"/>
<path fill="#183944" opacity="1.000000" stroke="none" 
	d="
M267.401245,169.786987 
	C271.074524,172.999634 274.452026,176.364777 278.076660,180.011261 
	C275.095764,183.841553 271.867737,187.390503 268.625793,190.954727 
	C264.888275,186.924545 261.458618,183.226334 257.541931,179.002945 
	C260.207794,176.476486 263.656647,173.207993 267.401245,169.786987 
z"/>
<path fill="#173743" opacity="1.000000" stroke="none" 
	d="
M332.776306,235.446228 
	C336.669525,238.824509 340.347626,242.441177 344.179047,246.336349 
	C341.177399,250.248901 338.022430,253.882980 334.507477,257.931702 
	C330.217163,253.153519 326.939117,249.502686 323.083313,245.208420 
	C325.882538,242.395615 329.221863,239.040115 332.776306,235.446228 
z"/>
</svg>