<?xml version="1.0" encoding="UTF-8"?>
<!DOCTYPE svg PUBLIC "-//W3C//DTD SVG 1.1//EN" "http://www.w3.org/Graphics/SVG/1.1/DTD/svg11.dtd">
<svg xmlns="http://www.w3.org/2000/svg" version="1.1" width="512px" height="512px" style="shape-rendering:geometricPrecision; text-rendering:geometricPrecision; image-rendering:optimizeQuality; fill-rule:evenodd; clip-rule:evenodd" xmlns:xlink="http://www.w3.org/1999/xlink">
<g><path style="opacity:0.984" fill="#5abfa5" d="M 192.5,418.5 C 164.752,389.251 136.419,360.417 107.5,332C 106.906,331.536 106.239,331.369 105.5,331.5C 103.372,328.87 101.039,326.37 98.5,324C 183.833,238.667 269.167,153.333 354.5,68C 355.167,67.3333 355.833,67.3333 356.5,68C 369,80.5 381.5,93 394,105.5C 392.332,109.561 391.165,113.894 390.5,118.5C 391.167,127.833 396.167,132.833 405.5,133.5C 410.106,132.835 414.439,131.668 418.5,130C 431.347,142.681 444.014,155.514 456.5,168.5C 371.18,254.32 285.68,339.986 200,425.5C 197.63,422.961 195.13,420.628 192.5,418.5 Z"/></g>
<g><path style="opacity:1" fill="#e4e6e9" d="M 404.5,187.5 C 340.201,251.299 276.035,315.299 212,379.5C 191.299,358.632 170.465,337.965 149.5,317.5C 148.04,315.537 146.373,313.704 144.5,312C 210.5,246 276.5,180 342.5,114C 343.167,113.333 343.833,113.333 344.5,114C 366.333,135.833 388.167,157.667 410,179.5C 410.667,180.167 410.667,180.833 410,181.5C 407.96,183.37 406.127,185.37 404.5,187.5 Z"/></g>
<g><path style="opacity:1" fill="#6b9bd1" d="M 335.5,157.5 C 351.544,158.378 360.044,166.712 361,182.5C 357.456,190.712 351.79,197.045 344,201.5C 335.078,194.583 326.745,186.916 319,178.5C 318.219,177.271 317.719,175.938 317.5,174.5C 322.232,167.433 328.232,161.767 335.5,157.5 Z"/></g>
<g><path style="opacity:1" fill="#e2e5e9" d="M 334.5,165.5 C 343.387,165.207 349.553,169.207 353,177.5C 353.754,183.992 351.254,188.992 345.5,192.5C 338.833,186.5 332.5,180.167 326.5,173.5C 328.882,170.452 331.548,167.785 334.5,165.5 Z"/></g>
<g><path style="opacity:1" fill="#6b9cd2" d="M 305.5,185.5 C 308.187,185.336 310.854,185.503 313.5,186C 317.674,187.508 318.341,189.841 315.5,193C 312.978,193.499 310.478,193.332 308,192.5C 301.539,193.923 299.373,197.756 301.5,204C 306.999,203.564 311.999,201.564 316.5,198C 324.364,194.681 330.197,196.848 334,204.5C 333.517,218.981 326.017,225.814 311.5,225C 306.625,222.151 306.459,219.318 311,216.5C 321.187,220.587 326.187,217.253 326,206.5C 324.192,204.604 322.025,204.104 319.5,205C 314.435,208.449 308.935,210.949 303,212.5C 294.151,209.801 291.485,204.134 295,195.5C 297.738,191.26 301.238,187.926 305.5,185.5 Z"/></g>
<g><path style="opacity:1" fill="#5ab399" d="M 404.5,187.5 C 407.648,188.474 409.481,190.474 410,193.5C 344.5,259 279,324.5 213.5,390C 212.5,390.667 211.5,390.667 210.5,390C 188.667,368.167 166.833,346.333 145,324.5C 144.333,323.833 144.333,323.167 145,322.5C 146.707,320.963 148.207,319.296 149.5,317.5C 170.465,337.965 191.299,358.632 212,379.5C 276.035,315.299 340.201,251.299 404.5,187.5 Z"/></g>
<g><path style="opacity:1" fill="#6d9cd2" d="M 280.5,211.5 C 284.192,210.971 287.358,211.971 290,214.5C 290.275,220.33 287.609,221.997 282,219.5C 277.202,219.466 274.368,221.8 273.5,226.5C 274.497,230.014 276.83,231.181 280.5,230C 285.462,226.685 290.795,224.185 296.5,222.5C 308.245,226.32 310.745,233.654 304,244.5C 299.483,250.178 293.649,252.678 286.5,252C 282.329,250.55 280.995,247.883 282.5,244C 283.333,243.833 284.167,243.667 285,243.5C 294.688,246.78 299.688,243.446 300,233.5C 297.847,231.556 295.347,231.056 292.5,232C 287.725,235.555 282.392,237.721 276.5,238.5C 267.15,235.967 264.65,230.301 269,221.5C 271.984,217.106 275.817,213.773 280.5,211.5 Z"/></g>
<g><path style="opacity:1" fill="#699bd1" d="M 243.5,247.5 C 253.195,246.66 258.528,250.994 259.5,260.5C 258.421,266.516 258.421,272.516 259.5,278.5C 263.318,275.182 266.985,271.682 270.5,268C 273.125,267.277 274.792,268.277 275.5,271C 270.259,277.911 264.092,283.744 257,288.5C 254.812,288.646 253.479,287.646 253,285.5C 252.273,278.144 252.44,270.811 253.5,263.5C 252.461,254.23 248.294,252.23 241,257.5C 240.737,261.835 240.903,266.168 241.5,270.5C 236.067,270.559 233.4,267.725 233.5,262C 233.615,259.268 234.448,256.768 236,254.5C 238.396,251.933 240.896,249.6 243.5,247.5 Z"/></g>
<g><path style="opacity:1" fill="#6a9bd1" d="M 208.5,281.5 C 210.199,281.34 211.866,281.506 213.5,282C 222.412,290.408 230.745,299.241 238.5,308.5C 238.02,311.492 236.353,312.659 233.5,312C 226.667,305.167 219.833,298.333 213,291.5C 217.333,299.814 222,308.147 227,316.5C 228.167,322 226,324.167 220.5,323C 213.138,317.827 205.471,313.494 197.5,310C 203.667,316.167 209.833,322.333 216,328.5C 216.092,334.81 213.592,335.977 208.5,332C 201.333,324.833 194.167,317.667 187,310.5C 184.865,305.076 186.698,301.409 192.5,299.5C 200.201,303.101 207.701,307.101 215,311.5C 211.747,303.855 207.914,296.355 203.5,289C 204.589,286.084 206.256,283.584 208.5,281.5 Z"/></g>
<g><path style="opacity:1" fill="#73a0d3" d="M 243.5,292.5 C 250.004,292.138 251.671,294.638 248.5,300C 244.558,301.418 242.225,300.084 241.5,296C 241.978,294.697 242.645,293.531 243.5,292.5 Z"/></g>
<g><path style="opacity:0.985" fill="#fbcb58" d="M 105.5,331.5 C 106.239,331.369 106.906,331.536 107.5,332C 136.419,360.417 164.752,389.251 192.5,418.5C 186.492,424.342 180.325,430.008 174,435.5C 170.345,433.012 167.178,430.012 164.5,426.5C 168.464,423.037 172.298,419.37 176,415.5C 176.165,411.023 173.998,409.523 169.5,411C 165.963,414.369 162.629,417.869 159.5,421.5C 156.833,419.5 154.5,417.167 152.5,414.5C 156.737,411.772 160.571,408.439 164,404.5C 164.664,399.504 162.498,397.67 157.5,399C 153.963,402.369 150.629,405.869 147.5,409.5C 144.833,407.5 142.5,405.167 140.5,402.5C 144.737,399.772 148.571,396.439 152,392.5C 152.833,388 151,386.167 146.5,387C 142.964,390.704 139.298,394.204 135.5,397.5C 133.167,395.833 131.167,393.833 129.5,391.5C 133.131,388.371 136.631,385.037 140,381.5C 141.33,376.502 139.496,374.336 134.5,375C 130.561,378.429 127.228,382.263 124.5,386.5C 121.521,384.188 118.854,381.521 116.5,378.5C 119.441,375.733 121.775,372.567 123.5,369C 122.261,362.879 118.594,360.546 112.5,362C 110.615,364.222 108.449,366.056 106,367.5C 103.014,365.68 100.514,363.347 98.5,360.5C 102.737,357.772 106.571,354.439 110,350.5C 110.833,346 109,344.167 104.5,345C 100.964,348.704 97.2976,352.204 93.5,355.5C 91.1878,353.854 89.1878,351.854 87.5,349.5C 93.1877,343.146 99.1877,337.146 105.5,331.5 Z"/></g>
<g><path style="opacity:1" fill="#efbb54" d="M 98.5,360.5 C 96.5,359.167 94.8333,357.5 93.5,355.5C 97.2976,352.204 100.964,348.704 104.5,345C 109,344.167 110.833,346 110,350.5C 106.571,354.439 102.737,357.772 98.5,360.5 Z"/></g>
<g><path style="opacity:1" fill="#efbc54" d="M 129.5,391.5 C 127.5,390.167 125.833,388.5 124.5,386.5C 127.228,382.263 130.561,378.429 134.5,375C 139.496,374.336 141.33,376.502 140,381.5C 136.631,385.037 133.131,388.371 129.5,391.5 Z"/></g>
<g><path style="opacity:1" fill="#efbb54" d="M 140.5,402.5 C 138.5,401.167 136.833,399.5 135.5,397.5C 139.298,394.204 142.964,390.704 146.5,387C 151,386.167 152.833,388 152,392.5C 148.571,396.439 144.737,399.772 140.5,402.5 Z"/></g>
<g><path style="opacity:1" fill="#efbc54" d="M 152.5,414.5 C 150.5,413.167 148.833,411.5 147.5,409.5C 150.629,405.869 153.963,402.369 157.5,399C 162.498,397.67 164.664,399.504 164,404.5C 160.571,408.439 156.737,411.772 152.5,414.5 Z"/></g>
<g><path style="opacity:1" fill="#efbb54" d="M 164.5,426.5 C 162.5,425.167 160.833,423.5 159.5,421.5C 162.629,417.869 165.963,414.369 169.5,411C 173.998,409.523 176.165,411.023 176,415.5C 172.298,419.37 168.464,423.037 164.5,426.5 Z"/></g>
</svg>
