<?xml version="1.0" encoding="UTF-8"?>
<!DOCTYPE svg PUBLIC "-//W3C//DTD SVG 1.1//EN" "http://www.w3.org/Graphics/SVG/1.1/DTD/svg11.dtd">
<svg xmlns="http://www.w3.org/2000/svg" version="1.1" width="512px" height="512px" style="shape-rendering:geometricPrecision; text-rendering:geometricPrecision; image-rendering:optimizeQuality; fill-rule:evenodd; clip-rule:evenodd" xmlns:xlink="http://www.w3.org/1999/xlink">
<g><path style="opacity:1" fill="#9edf65" d="M 415.5,159.5 C 415.5,191.5 415.5,223.5 415.5,255.5C 397.5,255.5 379.5,255.5 361.5,255.5C 361.828,244.321 361.495,233.321 360.5,222.5C 357.643,213.067 351.309,209.233 341.5,211C 336.243,213.256 332.743,217.09 331,222.5C 330.5,233.495 330.333,244.495 330.5,255.5C 301.167,255.5 271.833,255.5 242.5,255.5C 242.666,246.827 242.5,238.16 242,229.5C 240.5,224 237,220.5 231.5,219C 210.503,218.5 189.503,218.333 168.5,218.5C 135.165,218.333 101.832,218.5 68.5,219C 63.3333,220.833 59.8333,224.333 58,229.5C 57.5002,238.16 57.3336,246.827 57.5,255.5C 38.1667,255.5 18.8333,255.5 -0.5,255.5C -0.5,226.5 -0.5,197.5 -0.5,168.5C 1.31481,164.521 4.31481,161.688 8.5,160C 144.166,159.5 279.833,159.333 415.5,159.5 Z"/></g>
<g><path style="opacity:0.999" fill="#585858" d="M 415.5,159.5 C 444.502,159.333 473.502,159.5 502.5,160C 506.685,161.688 509.685,164.521 511.5,168.5C 511.5,182.5 511.5,196.5 511.5,210.5C 499.829,210.333 488.162,210.5 476.5,211C 466.817,216.048 464.317,223.548 469,233.5C 471.24,236.402 474.073,238.569 477.5,240C 488.828,240.5 500.162,240.667 511.5,240.5C 511.5,245.5 511.5,250.5 511.5,255.5C 479.5,255.5 447.5,255.5 415.5,255.5C 415.5,223.5 415.5,191.5 415.5,159.5 Z"/></g>
<g><path style="opacity:1" fill="#5a5b59" d="M 281.5,210.5 C 296.627,210.416 302.461,217.75 299,232.5C 290.654,242.601 281.987,242.934 273,233.5C 270.264,228.624 269.93,223.624 272,218.5C 274.735,215.231 277.901,212.564 281.5,210.5 Z"/></g>
<g><path style="opacity:1" fill="#595b59" d="M 360.5,222.5 C 360.5,233.5 360.5,244.5 360.5,255.5C 350.833,255.5 341.167,255.5 331.5,255.5C 331.5,266.167 331.5,276.833 331.5,287.5C 330.506,277.013 330.172,266.346 330.5,255.5C 330.333,244.495 330.5,233.495 331,222.5C 332.743,217.09 336.243,213.256 341.5,211C 351.309,209.233 357.643,213.067 360.5,222.5 Z"/></g>
<g><path style="opacity:1" fill="#414952" d="M 511.5,210.5 C 511.5,220.5 511.5,230.5 511.5,240.5C 500.162,240.667 488.828,240.5 477.5,240C 474.073,238.569 471.24,236.402 469,233.5C 464.317,223.548 466.817,216.048 476.5,211C 488.162,210.5 499.829,210.333 511.5,210.5 Z"/></g>
<g><path style="opacity:1" fill="#595959" d="M 168.5,218.5 C 168.5,230.833 168.5,243.167 168.5,255.5C 131.5,255.5 94.5,255.5 57.5,255.5C 57.3336,246.827 57.5002,238.16 58,229.5C 59.8333,224.333 63.3333,220.833 68.5,219C 101.832,218.5 135.165,218.333 168.5,218.5 Z"/></g>
<g><path style="opacity:1" fill="#414952" d="M 168.5,218.5 C 189.503,218.333 210.503,218.5 231.5,219C 237,220.5 240.5,224 242,229.5C 242.5,238.16 242.666,246.827 242.5,255.5C 217.833,255.5 193.167,255.5 168.5,255.5C 168.5,243.167 168.5,230.833 168.5,218.5 Z"/></g>
<g><path style="opacity:1" fill="#4ac97a" d="M 360.5,222.5 C 361.495,233.321 361.828,244.321 361.5,255.5C 379.5,255.5 397.5,255.5 415.5,255.5C 415.5,287.5 415.5,319.5 415.5,351.5C 279.833,351.667 144.166,351.5 8.5,351C 4.31481,349.312 1.31481,346.479 -0.5,342.5C -0.5,313.5 -0.5,284.5 -0.5,255.5C 18.8333,255.5 38.1667,255.5 57.5,255.5C 57.3336,263.84 57.5003,272.173 58,280.5C 59.4022,286.236 62.9022,290.069 68.5,292C 101.832,292.5 135.165,292.667 168.5,292.5C 189.503,292.667 210.503,292.5 231.5,292C 237.438,290.395 240.938,286.562 242,280.5C 242.5,272.173 242.666,263.84 242.5,255.5C 271.833,255.5 301.167,255.5 330.5,255.5C 330.172,266.346 330.506,277.013 331.5,287.5C 335.083,299.622 342.75,303.122 354.5,298C 357.467,295.9 359.3,293.066 360,289.5C 360.5,278.172 360.667,266.838 360.5,255.5C 360.5,244.5 360.5,233.5 360.5,222.5 Z"/></g>
<g><path style="opacity:1" fill="#414952" d="M 57.5,255.5 C 94.5,255.5 131.5,255.5 168.5,255.5C 168.5,267.833 168.5,280.167 168.5,292.5C 135.165,292.667 101.832,292.5 68.5,292C 62.9022,290.069 59.4022,286.236 58,280.5C 57.5003,272.173 57.3336,263.84 57.5,255.5 Z"/></g>
<g><path style="opacity:1" fill="#23272b" d="M 168.5,255.5 C 193.167,255.5 217.833,255.5 242.5,255.5C 242.666,263.84 242.5,272.173 242,280.5C 240.938,286.562 237.438,290.395 231.5,292C 210.503,292.5 189.503,292.667 168.5,292.5C 168.5,280.167 168.5,267.833 168.5,255.5 Z"/></g>
<g><path style="opacity:1" fill="#414952" d="M 360.5,255.5 C 360.667,266.838 360.5,278.172 360,289.5C 359.3,293.066 357.467,295.9 354.5,298C 342.75,303.122 335.083,299.622 331.5,287.5C 331.5,276.833 331.5,266.167 331.5,255.5C 341.167,255.5 350.833,255.5 360.5,255.5 Z"/></g>
<g><path style="opacity:1" fill="#404851" d="M 415.5,255.5 C 447.5,255.5 479.5,255.5 511.5,255.5C 511.5,260.5 511.5,265.5 511.5,270.5C 500.162,270.333 488.828,270.5 477.5,271C 464.886,277.959 463.22,286.959 472.5,298C 473.833,298.667 475.167,299.333 476.5,300C 488.162,300.5 499.829,300.667 511.5,300.5C 511.5,314.5 511.5,328.5 511.5,342.5C 509.685,346.479 506.685,349.312 502.5,351C 473.502,351.5 444.502,351.667 415.5,351.5C 415.5,319.5 415.5,287.5 415.5,255.5 Z"/></g>
<g><path style="opacity:1" fill="#414a52" d="M 281.5,270.5 C 296.158,270.979 301.991,278.312 299,292.5C 290.626,302.551 281.96,302.884 273,293.5C 268.489,283.179 271.323,275.512 281.5,270.5 Z"/></g>
<g><path style="opacity:1" fill="#23272b" d="M 511.5,270.5 C 511.5,280.5 511.5,290.5 511.5,300.5C 499.829,300.667 488.162,300.5 476.5,300C 475.167,299.333 473.833,298.667 472.5,298C 463.22,286.959 464.886,277.959 477.5,271C 488.828,270.5 500.162,270.333 511.5,270.5 Z"/></g>
</svg>
