<?xml version="1.0" encoding="UTF-8"?>
<!DOCTYPE svg PUBLIC "-//W3C//DTD SVG 1.1//EN" "http://www.w3.org/Graphics/SVG/1.1/DTD/svg11.dtd">
<svg xmlns="http://www.w3.org/2000/svg" version="1.1" width="512px" height="512px" style="shape-rendering:geometricPrecision; text-rendering:geometricPrecision; image-rendering:optimizeQuality; fill-rule:evenodd; clip-rule:evenodd" xmlns:xlink="http://www.w3.org/1999/xlink">
<g><path style="opacity:0.99" fill="#71c185" d="M 347.5,-0.5 C 348.5,-0.5 349.5,-0.5 350.5,-0.5C 364.465,13.9652 378.631,28.2985 393,42.5C 390.36,46.4199 388.86,50.9199 388.5,56C 390.404,68.6309 397.738,73.9643 410.5,72C 413.249,70.8773 415.749,69.3773 418,67.5C 426.5,76 435,84.5 443.5,93C 437.473,100.45 436.973,108.284 442,116.5C 450.228,124.1 458.728,124.433 467.5,117.5C 474.188,123.521 480.521,129.854 486.5,136.5C 478.167,145.167 469.833,153.833 461.5,162.5C 361.5,261.833 261.833,361.5 162.5,461.5C 153.833,469.833 145.167,478.167 136.5,486.5C 129.854,480.521 123.521,474.188 117.5,467.5C 124.433,458.728 124.1,450.228 116.5,442C 108.284,436.973 100.45,437.473 93,443.5C 84.5,435 76,426.5 67.5,418C 74.4061,409.059 74.0727,400.392 66.5,392C 63.3172,389.822 59.8172,388.656 56,388.5C 50.9199,388.86 46.4199,390.36 42.5,393C 28.2985,378.631 13.9652,364.465 -0.5,350.5C -0.5,349.5 -0.5,348.5 -0.5,347.5C 115.833,231.833 231.833,115.833 347.5,-0.5 Z"/></g>
<g><path style="opacity:1" fill="#4d8257" d="M 346.5,40.5 C 355.202,40.555 358.702,44.8884 357,53.5C 348.666,61.208 343.166,59.5413 340.5,48.5C 341.357,44.9767 343.357,42.31 346.5,40.5 Z"/></g>
<g><path style="opacity:1" fill="#ebeff0" d="M 398.5,161.5 C 394.336,156.503 389.669,152.003 384.5,148C 374.107,146.326 370.274,150.492 373,160.5C 377.703,165.035 382.203,169.702 386.5,174.5C 382.14,178.194 378.14,182.194 374.5,186.5C 370.036,182.537 365.702,178.37 361.5,174C 351.647,169.52 346.814,172.687 347,183.5C 351.671,189.003 356.504,194.336 361.5,199.5C 357.167,203.167 353.167,207.167 349.5,211.5C 345.036,207.537 340.702,203.37 336.5,199C 326.647,194.52 321.814,197.687 322,208.5C 326.671,214.003 331.504,219.336 336.5,224.5C 329.315,231.185 322.315,238.019 315.5,245C 312.366,245.79 309.366,245.457 306.5,244C 289.333,226.833 272.167,209.667 255,192.5C 253.517,189.298 253.183,185.964 254,182.5C 286.5,150 319,117.5 351.5,85C 354.594,84.3482 357.594,84.6815 360.5,86C 378,103.5 395.5,121 413,138.5C 414.85,141.463 414.85,144.463 413,147.5C 408.325,152.342 403.491,157.009 398.5,161.5 Z"/></g>
<g><path style="opacity:1" fill="#a7a7a6" d="M 351.5,122.5 C 360.055,120.82 364.221,124.153 364,132.5C 360,140.5 354.667,141.5 348,135.5C 345.325,130.011 346.492,125.678 351.5,122.5 Z"/></g>
<g><path style="opacity:1" fill="#af9147" d="M 486.5,136.5 C 494.833,144.5 503.167,152.5 511.5,160.5C 511.5,161.5 511.5,162.5 511.5,163.5C 503.167,171.5 494.833,179.5 486.5,187.5C 478.5,178.833 470.167,170.5 461.5,162.5C 469.833,153.833 478.167,145.167 486.5,136.5 Z"/></g>
<g><path style="opacity:1" fill="#a6a6a5" d="M 327.5,146.5 C 337.128,146.793 340.628,151.46 338,160.5C 329.167,169.333 320.333,178.167 311.5,187C 304.866,191.257 300.033,189.757 297,182.5C 296.294,180.029 296.627,177.695 298,175.5C 307.728,165.604 317.562,155.937 327.5,146.5 Z"/></g>
<g><path style="opacity:1" fill="#616265" d="M 398.5,161.5 C 395.23,166.44 391.23,170.773 386.5,174.5C 382.203,169.702 377.703,165.035 373,160.5C 370.274,150.492 374.107,146.326 384.5,148C 389.669,152.003 394.336,156.503 398.5,161.5 Z"/></g>
<g><path style="opacity:1" fill="#e2c05c" d="M 461.5,162.5 C 470.167,170.5 478.5,178.833 486.5,187.5C 387.5,287.167 288.167,386.5 188.5,485.5C 187.448,485.649 186.448,485.483 185.5,485C 177.631,477.298 169.964,469.465 162.5,461.5C 261.833,361.5 361.5,261.833 461.5,162.5 Z"/></g>
<g><path style="opacity:1" fill="#626366" d="M 374.5,186.5 C 370.5,191.167 366.167,195.5 361.5,199.5C 356.504,194.336 351.671,189.003 347,183.5C 346.814,172.687 351.647,169.52 361.5,174C 365.702,178.37 370.036,182.537 374.5,186.5 Z"/></g>
<g><path style="opacity:1" fill="#626366" d="M 349.5,211.5 C 345.5,216.167 341.167,220.5 336.5,224.5C 331.504,219.336 326.671,214.003 322,208.5C 321.814,197.687 326.647,194.52 336.5,199C 340.702,203.37 345.036,207.537 349.5,211.5 Z"/></g>
<g><path style="opacity:1" fill="#5e5f62" d="M 222.5,215.5 C 225.564,215.144 228.231,215.977 230.5,218C 248.029,235.195 265.196,252.695 282,270.5C 282.667,273.167 282.667,275.833 282,278.5C 274.47,286.365 266.636,293.865 258.5,301C 256.167,301.667 253.833,301.667 251.5,301C 233.667,283.167 215.833,265.333 198,247.5C 196.15,244.463 196.15,241.463 198,238.5C 205.785,230.209 213.951,222.542 222.5,215.5 Z"/></g>
<g><path style="opacity:1" fill="#5e6062" d="M 165.5,271.5 C 169.229,271.576 172.562,272.743 175.5,275C 192.696,291.862 209.529,309.028 226,326.5C 226.667,329.167 226.667,331.833 226,334.5C 218.446,342.054 210.946,349.554 203.5,357C 200.036,357.817 196.702,357.483 193.5,356C 175.971,338.805 158.804,321.305 142,303.5C 140,300.5 140,297.5 142,294.5C 149.728,286.604 157.562,278.937 165.5,271.5 Z"/></g>
<g><path style="opacity:1" fill="#5e5f62" d="M 107.5,328.5 C 110.978,328.184 114.312,328.684 117.5,330C 135.362,347.528 152.862,365.362 170,383.5C 170.584,386.257 170.25,388.923 169,391.5C 161.833,398.667 154.667,405.833 147.5,413C 144.5,413.667 141.5,413.667 138.5,413C 120.305,395.138 102.471,376.972 85,358.5C 84.3333,356.167 84.3333,353.833 85,351.5C 92.7025,343.965 100.202,336.298 107.5,328.5 Z"/></g>
<g><path style="opacity:1" fill="#4d8257" d="M 45.5,340.5 C 55.3617,339.848 59.1951,344.182 57,353.5C 51.3134,359.04 45.98,358.706 41,352.5C 39.9764,347.548 41.4764,343.548 45.5,340.5 Z"/></g>
<g><path style="opacity:1" fill="#af9147" d="M 162.5,461.5 C 169.964,469.465 177.631,477.298 185.5,485C 186.448,485.483 187.448,485.649 188.5,485.5C 180.167,494.167 171.833,502.833 163.5,511.5C 162.5,511.5 161.5,511.5 160.5,511.5C 152.5,503.167 144.5,494.833 136.5,486.5C 145.167,478.167 153.833,469.833 162.5,461.5 Z"/></g>
</svg>
