<?xml version="1.0" encoding="UTF-8"?>
<!DOCTYPE svg PUBLIC "-//W3C//DTD SVG 1.1//EN" "http://www.w3.org/Graphics/SVG/1.1/DTD/svg11.dtd">
<svg xmlns="http://www.w3.org/2000/svg" version="1.1" width="512px" height="512px" style="shape-rendering:geometricPrecision; text-rendering:geometricPrecision; image-rendering:optimizeQuality; fill-rule:evenodd; clip-rule:evenodd" xmlns:xlink="http://www.w3.org/1999/xlink">
<g><path style="opacity:1" fill="#565f67" d="M 96.5,35.5 C 96.5,45.8333 96.5,56.1667 96.5,66.5C 96.1667,66.5 95.8333,66.5 95.5,66.5C 90.5092,60.177 85.1759,54.177 79.5,48.5C 79.5,43.5 79.5,38.5 79.5,33.5C 84.8437,33.334 90.1771,33.5006 95.5,34C 96.056,34.3826 96.3893,34.8826 96.5,35.5 Z"/></g>
<g><path style="opacity:0.995" fill="#4c545d" d="M 96.5,35.5 C 109.208,47.8732 121.208,60.8732 132.5,74.5C 140.53,83.8497 149.03,92.8497 158,101.5C 158.5,112.495 158.667,123.495 158.5,134.5C 137.493,112.159 116.826,89.492 96.5,66.5C 96.5,56.1667 96.5,45.8333 96.5,35.5 Z"/></g>
<g><path style="opacity:1" fill="#f9c958" d="M 79.5,48.5 C 85.1759,54.177 90.5092,60.177 95.5,66.5C 95.8182,71.0323 95.4849,75.3656 94.5,79.5C 89.2046,75.5401 84.2046,71.2068 79.5,66.5C 79.5,60.5 79.5,54.5 79.5,48.5 Z"/></g>
<g><path style="opacity:0.985" fill="#4c545e" d="M 308.5,74.5 C 310.962,77.4639 313.629,80.2972 316.5,83C 308.137,89.1758 299.804,95.3425 291.5,101.5C 265.337,100.337 239.003,100.17 212.5,101C 210.167,103.333 207.833,105.667 205.5,108C 230.498,108.5 255.498,108.667 280.5,108.5C 277.264,111.797 273.597,114.63 269.5,117C 236.835,117.5 204.168,117.667 171.5,117.5C 171.171,104.989 171.505,92.6554 172.5,80.5C 172.795,78.2646 172.461,76.2646 171.5,74.5C 171.5,69.1667 171.5,63.8333 171.5,58.5C 212.168,58.3333 252.835,58.5 293.5,59C 298.703,64.0354 303.703,69.202 308.5,74.5 Z"/></g>
<g><path style="opacity:1" fill="#e7b654" d="M 95.5,66.5 C 95.8333,66.5 96.1667,66.5 96.5,66.5C 116.826,89.492 137.493,112.159 158.5,134.5C 158.5,135.5 158.5,136.5 158.5,137.5C 136.842,118.508 115.509,99.1744 94.5,79.5C 95.4849,75.3656 95.8182,71.0323 95.5,66.5 Z"/></g>
<g><path style="opacity:1" fill="#373d44" d="M 132.5,74.5 C 145.5,74.5 158.5,74.5 171.5,74.5C 172.461,76.2646 172.795,78.2646 172.5,80.5C 171.505,92.6554 171.171,104.989 171.5,117.5C 204.168,117.667 236.835,117.5 269.5,117C 273.597,114.63 277.264,111.797 280.5,108.5C 284.308,106.427 287.974,104.094 291.5,101.5C 299.804,95.3425 308.137,89.1758 316.5,83C 313.629,80.2972 310.962,77.4639 308.5,74.5C 344.167,74.5 379.833,74.5 415.5,74.5C 415.5,195.167 415.5,315.833 415.5,436.5C 308.833,436.5 202.167,436.5 95.5,436.5C 95.5,419.5 95.5,402.5 95.5,385.5C 106.679,385.828 117.679,385.495 128.5,384.5C 131.929,382.481 132.262,380.148 129.5,377.5C 118.346,376.505 107.012,376.172 95.5,376.5C 95.5,373.167 95.5,369.833 95.5,366.5C 106.838,366.667 118.172,366.5 129.5,366C 132.167,363.667 132.167,361.333 129.5,359C 118.172,358.5 106.838,358.333 95.5,358.5C 95.5,355.167 95.5,351.833 95.5,348.5C 107.012,348.828 118.346,348.495 129.5,347.5C 132.262,344.852 131.929,342.519 128.5,340.5C 117.679,339.505 106.679,339.172 95.5,339.5C 95.5,336.5 95.5,333.5 95.5,330.5C 106.679,330.828 117.679,330.495 128.5,329.5C 131.929,327.481 132.262,325.148 129.5,322.5C 118.346,321.505 107.012,321.172 95.5,321.5C 95.5,318.167 95.5,314.833 95.5,311.5C 106.838,311.667 118.172,311.5 129.5,311C 132.167,308.667 132.167,306.333 129.5,304C 118.172,303.5 106.838,303.333 95.5,303.5C 95.5,287.833 95.5,272.167 95.5,256.5C 96.1667,256.5 96.5,256.167 96.5,255.5C 107.528,243.474 118.528,231.474 129.5,219.5C 129.5,218.833 129.833,218.5 130.5,218.5C 135.796,211.869 141.463,205.535 147.5,199.5C 151.135,195.693 154.635,191.693 158,187.5C 158.499,182.177 158.666,176.844 158.5,171.5C 158.5,170.833 158.5,170.167 158.5,169.5C 158.5,158.833 158.5,148.167 158.5,137.5C 158.5,136.5 158.5,135.5 158.5,134.5C 158.667,123.495 158.5,112.495 158,101.5C 149.03,92.8497 140.53,83.8497 132.5,74.5 Z"/></g>
<g><path style="opacity:1" fill="#dee1e4" d="M 172.5,80.5 C 201.502,80.3334 230.502,80.5 259.5,81C 257.167,83.3333 254.833,85.6667 252.5,88C 225.835,88.5 199.169,88.6666 172.5,88.5C 172.5,85.8333 172.5,83.1667 172.5,80.5 Z"/></g>
<g><path style="opacity:1" fill="#4f5660" d="M 79.5,66.5 C 84.2046,71.2068 89.2046,75.5401 94.5,79.5C 115.509,99.1744 136.842,118.508 158.5,137.5C 158.5,148.167 158.5,158.833 158.5,169.5C 137.268,147.358 116.268,125.024 95.5,102.5C 90.1388,96.8071 84.8054,91.1404 79.5,85.5C 79.5,79.1667 79.5,72.8333 79.5,66.5 Z"/></g>
<g><path style="opacity:1" fill="#e1e3e7" d="M 79.5,85.5 C 84.8054,91.1404 90.1388,96.8071 95.5,102.5C 95.8168,106.702 95.4834,110.702 94.5,114.5C 89.5,110.5 84.5,106.5 79.5,102.5C 79.5,96.8333 79.5,91.1667 79.5,85.5 Z"/></g>
<g><path style="opacity:1" fill="#dddfe2" d="M 388.5,88.5 C 396.658,87.8229 400.158,91.4895 399,99.5C 396.774,103.861 393.274,105.361 388.5,104C 384.139,101.774 382.639,98.2742 384,93.5C 385.025,91.313 386.525,89.6464 388.5,88.5 Z"/></g>
<g><path style="opacity:1" fill="#fccb58" d="M 291.5,101.5 C 287.974,104.094 284.308,106.427 280.5,108.5C 255.498,108.667 230.498,108.5 205.5,108C 207.833,105.667 210.167,103.333 212.5,101C 239.003,100.17 265.337,100.337 291.5,101.5 Z"/></g>
<g><path style="opacity:1" fill="#586068" d="M 79.5,102.5 C 84.5,106.5 89.5,110.5 94.5,114.5C 95.1667,115.5 95.8333,116.5 96.5,117.5C 96.5,125.5 96.5,133.5 96.5,141.5C 96.1667,141.5 95.8333,141.5 95.5,141.5C 90.5092,135.177 85.1759,129.177 79.5,123.5C 79.5,116.5 79.5,109.5 79.5,102.5 Z"/></g>
<g><path style="opacity:1" fill="#d2d3d5" d="M 95.5,102.5 C 116.268,125.024 137.268,147.358 158.5,169.5C 158.5,170.167 158.5,170.833 158.5,171.5C 138.129,153.127 117.462,135.127 96.5,117.5C 95.8333,116.5 95.1667,115.5 94.5,114.5C 95.4834,110.702 95.8168,106.702 95.5,102.5 Z"/></g>
<g><path style="opacity:1" fill="#4d555e" d="M 96.5,117.5 C 117.462,135.127 138.129,153.127 158.5,171.5C 158.666,176.844 158.499,182.177 158,187.5C 154.635,191.693 151.135,195.693 147.5,199.5C 146.25,197.068 144.75,194.734 143,192.5C 127.293,175.63 111.793,158.63 96.5,141.5C 96.5,133.5 96.5,125.5 96.5,117.5 Z"/></g>
<g><path style="opacity:1" fill="#f9c958" d="M 79.5,123.5 C 85.1759,129.177 90.5092,135.177 95.5,141.5C 95.5,145.5 95.5,149.5 95.5,153.5C 89.8705,149.206 84.5372,144.539 79.5,139.5C 79.5,134.167 79.5,128.833 79.5,123.5 Z"/></g>
<g><path style="opacity:1" fill="#505862" d="M 284.5,127.5 C 289.833,127.5 295.167,127.5 300.5,127.5C 300.5,170.167 300.5,212.833 300.5,255.5C 295.167,255.5 289.833,255.5 284.5,255.5C 284.5,212.833 284.5,170.167 284.5,127.5 Z"/></g>
<g><path style="opacity:1" fill="#4d545e" d="M 312.5,127.5 C 317.833,127.5 323.167,127.5 328.5,127.5C 328.5,170.167 328.5,212.833 328.5,255.5C 323.167,255.5 317.833,255.5 312.5,255.5C 312.5,212.833 312.5,170.167 312.5,127.5 Z"/></g>
<g><path style="opacity:1" fill="#4f5761" d="M 339.5,127.5 C 344.833,127.5 350.167,127.5 355.5,127.5C 355.5,170.167 355.5,212.833 355.5,255.5C 350.167,255.5 344.833,255.5 339.5,255.5C 339.5,212.833 339.5,170.167 339.5,127.5 Z"/></g>
<g><path style="opacity:1" fill="#505862" d="M 367.5,127.5 C 372.833,127.5 378.167,127.5 383.5,127.5C 383.5,170.167 383.5,212.833 383.5,255.5C 378.167,255.5 372.833,255.5 367.5,255.5C 367.5,212.833 367.5,170.167 367.5,127.5 Z"/></g>
<g><path style="opacity:1" fill="#d1d4d8" d="M 291.5,134.5 C 292.5,134.5 293.5,134.5 294.5,134.5C 294.5,172.167 294.5,209.833 294.5,247.5C 293.5,247.5 292.5,247.5 291.5,247.5C 291.5,209.833 291.5,172.167 291.5,134.5 Z"/></g>
<g><path style="opacity:1" fill="#cccfd3" d="M 321.5,135.5 C 319.506,172.485 318.84,209.818 319.5,247.5C 318.502,210.004 318.168,172.337 318.5,134.5C 319.791,134.263 320.791,134.596 321.5,135.5 Z"/></g>
<g><path style="opacity:1" fill="#e4e7e9" d="M 321.5,135.5 C 322.16,173.182 321.494,210.515 319.5,247.5C 318.84,209.818 319.506,172.485 321.5,135.5 Z"/></g>
<g><path style="opacity:1" fill="#d3d6da" d="M 346.5,134.5 C 347.5,134.5 348.5,134.5 349.5,134.5C 349.5,172.167 349.5,209.833 349.5,247.5C 348.5,247.5 347.5,247.5 346.5,247.5C 346.5,209.833 346.5,172.167 346.5,134.5 Z"/></g>
<g><path style="opacity:1" fill="#d1d4d8" d="M 374.5,134.5 C 375.5,134.5 376.5,134.5 377.5,134.5C 377.5,172.167 377.5,209.833 377.5,247.5C 376.5,247.5 375.5,247.5 374.5,247.5C 374.5,209.833 374.5,172.167 374.5,134.5 Z"/></g>
<g><path style="opacity:1" fill="#586068" d="M 79.5,139.5 C 84.5372,144.539 89.8705,149.206 95.5,153.5C 96.1667,154.5 96.8333,155.5 97.5,156.5C 96.5084,163.648 96.175,170.981 96.5,178.5C 96.1667,178.5 95.8333,178.5 95.5,178.5C 90.5092,172.177 85.1759,166.177 79.5,160.5C 79.5,153.5 79.5,146.5 79.5,139.5 Z"/></g>
<g><path style="opacity:1" fill="#e7b654" d="M 95.5,141.5 C 95.8333,141.5 96.1667,141.5 96.5,141.5C 111.793,158.63 127.293,175.63 143,192.5C 144.75,194.734 146.25,197.068 147.5,199.5C 146.448,199.649 145.448,199.483 144.5,199C 128.963,184.626 113.296,170.46 97.5,156.5C 96.8333,155.5 96.1667,154.5 95.5,153.5C 95.5,149.5 95.5,145.5 95.5,141.5 Z"/></g>
<g><path style="opacity:1" fill="#4d555e" d="M 97.5,156.5 C 113.296,170.46 128.963,184.626 144.5,199C 145.448,199.483 146.448,199.649 147.5,199.5C 141.463,205.535 135.796,211.869 130.5,218.5C 119.565,204.892 108.231,191.559 96.5,178.5C 96.175,170.981 96.5084,163.648 97.5,156.5 Z"/></g>
<g><path style="opacity:1" fill="#4c8b80" d="M 248.5,158.5 C 228.833,158.5 209.167,158.5 189.5,158.5C 189.5,178.833 189.5,199.167 189.5,219.5C 188.503,199.007 188.169,178.34 188.5,157.5C 208.674,157.17 228.674,157.503 248.5,158.5 Z"/></g>
<g><path style="opacity:1" fill="#5bbea4" d="M 248.5,158.5 C 248.5,178.833 248.5,199.167 248.5,219.5C 228.833,219.5 209.167,219.5 189.5,219.5C 189.5,199.167 189.5,178.833 189.5,158.5C 209.167,158.5 228.833,158.5 248.5,158.5 Z"/></g>
<g><path style="opacity:1" fill="#e1e3e6" d="M 79.5,160.5 C 85.1759,166.177 90.5092,172.177 95.5,178.5C 95.815,182.371 95.4816,186.038 94.5,189.5C 89.3132,185.403 84.3132,181.07 79.5,176.5C 79.5,171.167 79.5,165.833 79.5,160.5 Z"/></g>
<g><path style="opacity:1" fill="#b0bebe" d="M 237.5,170.5 C 225.167,170.5 212.833,170.5 200.5,170.5C 200.5,182.833 200.5,195.167 200.5,207.5C 199.505,195.011 199.171,182.344 199.5,169.5C 212.344,169.171 225.011,169.505 237.5,170.5 Z"/></g>
<g><path style="opacity:1" fill="#e4e7e9" d="M 237.5,170.5 C 237.5,182.833 237.5,195.167 237.5,207.5C 225.167,207.5 212.833,207.5 200.5,207.5C 200.5,195.167 200.5,182.833 200.5,170.5C 212.833,170.5 225.167,170.5 237.5,170.5 Z"/></g>
<g><path style="opacity:1" fill="#565f68" d="M 79.5,176.5 C 84.3132,181.07 89.3132,185.403 94.5,189.5C 95.3065,190.728 96.3065,191.728 97.5,192.5C 96.5027,213.327 96.1694,234.327 96.5,255.5C 96.5,256.167 96.1667,256.5 95.5,256.5C 90.2384,256.805 85.0717,256.471 80,255.5C 79.5,229.169 79.3334,202.835 79.5,176.5 Z"/></g>
<g><path style="opacity:1" fill="#d2d4d5" d="M 95.5,178.5 C 95.8333,178.5 96.1667,178.5 96.5,178.5C 108.231,191.559 119.565,204.892 130.5,218.5C 129.833,218.5 129.5,218.833 129.5,219.5C 127.068,218.25 124.734,216.75 122.5,215C 114.296,207.293 105.963,199.793 97.5,192.5C 96.3065,191.728 95.3065,190.728 94.5,189.5C 95.4816,186.038 95.815,182.371 95.5,178.5 Z"/></g>
<g><path style="opacity:1" fill="#4c545e" d="M 97.5,192.5 C 105.963,199.793 114.296,207.293 122.5,215C 124.734,216.75 127.068,218.25 129.5,219.5C 118.528,231.474 107.528,243.474 96.5,255.5C 96.1694,234.327 96.5027,213.327 97.5,192.5 Z"/></g>
<g><path style="opacity:1" fill="#e2e4e7" d="M 225.5,253.5 C 243.689,252.515 250.856,260.848 247,278.5C 238.997,288.835 229.663,290.168 219,282.5C 211.388,270.526 213.555,260.86 225.5,253.5 Z"/></g>
<g><path style="opacity:1" fill="#48505a" d="M 136.5,255.5 C 145.167,255.5 153.833,255.5 162.5,255.5C 162.5,256.833 162.5,258.167 162.5,259.5C 166.514,259.334 170.514,259.501 174.5,260C 175.982,262.592 175.648,264.925 173.5,267C 169.848,267.499 166.182,267.665 162.5,267.5C 162.5,270.167 162.5,272.833 162.5,275.5C 166.514,275.334 170.514,275.501 174.5,276C 175.982,278.592 175.648,280.925 173.5,283C 169.848,283.499 166.182,283.665 162.5,283.5C 162.5,284.5 162.5,285.5 162.5,286.5C 153.833,286.5 145.167,286.5 136.5,286.5C 136.5,285.5 136.5,284.5 136.5,283.5C 132.818,283.665 129.152,283.499 125.5,283C 122.833,280.667 122.833,278.333 125.5,276C 129.152,275.501 132.818,275.335 136.5,275.5C 136.5,272.833 136.5,270.167 136.5,267.5C 132.818,267.665 129.152,267.499 125.5,267C 122.833,264.667 122.833,262.333 125.5,260C 129.152,259.501 132.818,259.335 136.5,259.5C 136.5,258.167 136.5,256.833 136.5,255.5 Z"/></g>
<g><path style="opacity:1" fill="#4c535d" d="M 318.5,270.5 C 329.814,279.636 341.314,288.636 353,297.5C 353.667,296.833 353.667,296.167 353,295.5C 346.327,287.464 340.161,279.13 334.5,270.5C 341.841,270.334 349.174,270.5 356.5,271C 363.667,278.167 370.833,285.333 378,292.5C 378.5,314.497 378.667,336.497 378.5,358.5C 370.167,358.5 361.833,358.5 353.5,358.5C 341.57,348.852 329.57,339.186 317.5,329.5C 317.167,329.667 316.833,329.833 316.5,330C 324.049,339.376 331.382,348.876 338.5,358.5C 329.827,358.666 321.16,358.5 312.5,358C 305.333,350.833 298.167,343.667 291,336.5C 290.5,314.503 290.333,292.503 290.5,270.5C 299.833,270.5 309.167,270.5 318.5,270.5 Z"/></g>
<g><path style="opacity:1" fill="#f1c458" d="M 318.5,270.5 C 323.833,270.5 329.167,270.5 334.5,270.5C 340.161,279.13 346.327,287.464 353,295.5C 353.667,296.167 353.667,296.833 353,297.5C 341.314,288.636 329.814,279.636 318.5,270.5 Z"/></g>
<g><path style="opacity:1" fill="#e1e3e6" d="M 95.5,303.5 C 106.838,303.333 118.172,303.5 129.5,304C 132.167,306.333 132.167,308.667 129.5,311C 118.172,311.5 106.838,311.667 95.5,311.5C 95.5,308.833 95.5,306.167 95.5,303.5 Z"/></g>
<g><path style="opacity:1" fill="#4d555f" d="M 160.5,303.5 C 190.167,303.5 219.833,303.5 249.5,303.5C 249.5,308.833 249.5,314.167 249.5,319.5C 219.833,319.5 190.167,319.5 160.5,319.5C 160.5,314.167 160.5,308.833 160.5,303.5 Z"/></g>
<g><path style="opacity:1" fill="#c0c4c8" d="M 167.5,310.5 C 191.994,309.502 216.661,309.169 241.5,309.5C 241.737,310.791 241.404,311.791 240.5,312.5C 216.523,310.51 192.19,309.843 167.5,310.5 Z"/></g>
<g><path style="opacity:1" fill="#e4e7e9" d="M 167.5,310.5 C 192.19,309.843 216.523,310.51 240.5,312.5C 215.81,313.157 191.477,312.49 167.5,310.5 Z"/></g>
<g><path style="opacity:1" fill="#a28a4f" d="M 95.5,321.5 C 107.012,321.172 118.346,321.505 129.5,322.5C 118.5,322.5 107.5,322.5 96.5,322.5C 96.5,324.833 96.5,327.167 96.5,329.5C 107.167,329.5 117.833,329.5 128.5,329.5C 117.679,330.495 106.679,330.828 95.5,330.5C 95.5,327.5 95.5,324.5 95.5,321.5 Z"/></g>
<g><path style="opacity:1" fill="#fccb57" d="M 129.5,322.5 C 132.262,325.148 131.929,327.481 128.5,329.5C 117.833,329.5 107.167,329.5 96.5,329.5C 96.5,327.167 96.5,324.833 96.5,322.5C 107.5,322.5 118.5,322.5 129.5,322.5 Z"/></g>
<g><path style="opacity:1" fill="#f0c358" d="M 353.5,358.5 C 348.5,358.5 343.5,358.5 338.5,358.5C 331.382,348.876 324.049,339.376 316.5,330C 316.833,329.833 317.167,329.667 317.5,329.5C 329.57,339.186 341.57,348.852 353.5,358.5 Z"/></g>
<g><path style="opacity:1" fill="#e4e6e9" d="M 128.5,340.5 C 131.929,342.519 132.262,344.852 129.5,347.5C 118.5,347.5 107.5,347.5 96.5,347.5C 96.5,345.167 96.5,342.833 96.5,340.5C 107.167,340.5 117.833,340.5 128.5,340.5 Z"/></g>
<g><path style="opacity:1" fill="#4d545e" d="M 160.5,341.5 C 190.167,341.5 219.833,341.5 249.5,341.5C 249.5,346.833 249.5,352.167 249.5,357.5C 219.833,357.5 190.167,357.5 160.5,357.5C 160.5,352.167 160.5,346.833 160.5,341.5 Z"/></g>
<g><path style="opacity:1" fill="#94989d" d="M 95.5,339.5 C 106.679,339.172 117.679,339.505 128.5,340.5C 117.833,340.5 107.167,340.5 96.5,340.5C 96.5,342.833 96.5,345.167 96.5,347.5C 107.5,347.5 118.5,347.5 129.5,347.5C 118.346,348.495 107.012,348.828 95.5,348.5C 95.5,345.5 95.5,342.5 95.5,339.5 Z"/></g>
<g><path style="opacity:1" fill="#dee0e4" d="M 167.5,347.5 C 192.167,347.5 216.833,347.5 241.5,347.5C 241.5,348.5 241.5,349.5 241.5,350.5C 216.833,350.5 192.167,350.5 167.5,350.5C 167.5,349.5 167.5,348.5 167.5,347.5 Z"/></g>
<g><path style="opacity:1" fill="#f9c957" d="M 95.5,358.5 C 106.838,358.333 118.172,358.5 129.5,359C 132.167,361.333 132.167,363.667 129.5,366C 118.172,366.5 106.838,366.667 95.5,366.5C 95.5,363.833 95.5,361.167 95.5,358.5 Z"/></g>
<g><path style="opacity:1" fill="#4c545e" d="M 239.5,373.5 C 277.501,373.333 315.501,373.5 353.5,374C 345.5,386.333 337.5,398.667 329.5,411C 293.162,411.833 256.829,411.667 220.5,410.5C 227.102,398.296 233.435,385.963 239.5,373.5 Z"/></g>
<g><path style="opacity:1" fill="#95989d" d="M 95.5,376.5 C 107.012,376.172 118.346,376.505 129.5,377.5C 118.5,377.5 107.5,377.5 96.5,377.5C 96.5,379.833 96.5,382.167 96.5,384.5C 107.167,384.5 117.833,384.5 128.5,384.5C 117.679,385.495 106.679,385.828 95.5,385.5C 95.5,382.5 95.5,379.5 95.5,376.5 Z"/></g>
<g><path style="opacity:1" fill="#e4e6e9" d="M 129.5,377.5 C 132.262,380.148 131.929,382.481 128.5,384.5C 117.833,384.5 107.167,384.5 96.5,384.5C 96.5,382.167 96.5,379.833 96.5,377.5C 107.5,377.5 118.5,377.5 129.5,377.5 Z"/></g>
<g><path style="opacity:1" fill="#dddfe2" d="M 325.5,380.5 C 333.52,380.392 335.854,383.892 332.5,391C 325.243,393.746 322.077,391.246 323,383.5C 324.045,382.627 324.878,381.627 325.5,380.5 Z"/></g>
<g><path style="opacity:1" fill="#4a525c" d="M 149.5,387.5 C 154.5,387.5 159.5,387.5 164.5,387.5C 164.5,392.5 164.5,397.5 164.5,402.5C 159.5,402.5 154.5,402.5 149.5,402.5C 149.5,397.5 149.5,392.5 149.5,387.5 Z"/></g>
<g><path style="opacity:1" fill="#4b535d" d="M 167.5,387.5 C 171.833,387.5 176.167,387.5 180.5,387.5C 180.5,392.167 180.5,396.833 180.5,401.5C 176.167,401.5 171.833,401.5 167.5,401.5C 167.5,396.833 167.5,392.167 167.5,387.5 Z"/></g>
<g><path style="opacity:1" fill="#4b545d" d="M 183.5,387.5 C 188.167,387.5 192.833,387.5 197.5,387.5C 197.5,392.167 197.5,396.833 197.5,401.5C 192.833,401.5 188.167,401.5 183.5,401.5C 183.5,396.833 183.5,392.167 183.5,387.5 Z"/></g>
<g><path style="opacity:1" fill="#dfe2e5" d="M 241.5,392.5 C 248.162,391.997 250.662,394.997 249,401.5C 245.714,405.485 242.381,405.485 239,401.5C 237.927,397.9 238.76,394.9 241.5,392.5 Z"/></g>
<g><path style="opacity:1" fill="#4a525c" d="M 149.5,404.5 C 154.5,404.5 159.5,404.5 164.5,404.5C 164.5,409.5 164.5,414.5 164.5,419.5C 159.5,419.5 154.5,419.5 149.5,419.5C 149.5,414.5 149.5,409.5 149.5,404.5 Z"/></g>
<g><path style="opacity:1" fill="#4b535d" d="M 167.5,405.5 C 171.833,405.5 176.167,405.5 180.5,405.5C 180.5,410.167 180.5,414.833 180.5,419.5C 176.167,419.5 171.833,419.5 167.5,419.5C 167.5,414.833 167.5,410.167 167.5,405.5 Z"/></g>
<g><path style="opacity:1" fill="#4b545d" d="M 183.5,405.5 C 188.167,405.5 192.833,405.5 197.5,405.5C 197.5,410.167 197.5,414.833 197.5,419.5C 192.833,419.5 188.167,419.5 183.5,419.5C 183.5,414.833 183.5,410.167 183.5,405.5 Z"/></g>
<g><path style="opacity:1" fill="#dddfe2" d="M 116.5,406.5 C 124.658,405.823 128.158,409.49 127,417.5C 124.774,421.861 121.274,423.361 116.5,422C 112.139,419.774 110.639,416.274 112,411.5C 113.025,409.313 114.525,407.646 116.5,406.5 Z"/></g>
<g><path style="opacity:1" fill="#dddfe2" d="M 388.5,406.5 C 396.658,405.823 400.158,409.49 399,417.5C 396.774,421.861 393.274,423.361 388.5,422C 384.139,419.774 382.639,416.274 384,411.5C 385.025,409.313 386.525,407.646 388.5,406.5 Z"/></g>
</svg>
