<?xml version="1.0" standalone="no"?>
<!DOCTYPE svg PUBLIC "-//W3C//DTD SVG 20010904//EN"
 "http://www.w3.org/TR/2001/REC-SVG-20010904/DTD/svg10.dtd">
<svg version="1.0" xmlns="http://www.w3.org/2000/svg"
 width="512.000000pt" height="512.000000pt" viewBox="0 0 512.000000 512.000000"
 preserveAspectRatio="xMidYMid meet">

<g transform="translate(0.000000,512.000000) scale(0.100000,-0.100000)"
fill="#000000" stroke="none">
<path d="M772 4798 c-18 -18 -17 -2251 1 -2266 7 -6 44 -12 82 -14 l70 -3 3
-889 c1 -637 5 -893 13 -903 16 -18 3218 -20 3237 -1 17 17 17 3659 0 3676 -9
9 -144 12 -548 12 l-536 0 -74 75 -75 75 -625 -2 -625 -3 -3 -72 -3 -73 -172
0 -172 0 -185 200 -185 200 -95 0 c-62 0 -100 -4 -108 -12z m472 -395 l306
-328 -1 -410 0 -410 -295 -325 -295 -325 -59 -3 -60 -3 0 1066 0 1065 49 0 50
0 305 -327z m1763 -15 c51 -51 93 -96 93 -100 0 -4 -54 -45 -119 -92 l-119
-86 -405 0 c-223 0 -412 -3 -421 -6 -21 -8 -21 -60 0 -68 9 -3 172 -6 362 -6
l347 -1 -30 -24 -30 -25 -457 0 -458 0 0 125 0 125 428 2 427 3 3 23 c8 53 12
52 -439 52 l-419 0 0 85 0 85 572 0 573 0 92 -92z m968 -183 c16 -15 25 -36
25 -55 0 -19 -9 -40 -25 -55 -15 -16 -36 -25 -55 -25 -19 0 -40 9 -55 25 -16
15 -25 36 -25 55 0 19 9 40 25 55 15 16 36 25 55 25 19 0 40 -9 55 -25z m-990
-1005 l0 -615 -55 0 -55 0 -3 605 c-1 333 0 611 3 618 3 9 21 12 57 10 l53 -3
0 -615z m280 0 l0 -615 -57 -3 -58 -3 0 621 0 621 58 -3 57 -3 0 -615z m275 0
l0 -621 -57 3 -58 3 -3 605 c-1 333 0 611 3 618 3 7 25 12 60 12 l55 0 0 -620z
m275 0 l0 -615 -55 0 -55 0 -3 605 c-1 333 0 611 3 618 3 9 21 12 57 10 l53
-3 0 -615z m-1787 538 c7 -7 12 -42 12 -85 l0 -73 50 0 50 0 0 69 c0 70 14
101 44 101 26 0 36 -26 36 -97 l0 -73 60 0 60 0 0 66 c0 72 12 104 38 104 33
0 42 -22 42 -97 l0 -73 36 0 c59 0 74 -14 74 -70 l0 -50 74 0 c65 0 77 -3 90
-22 11 -15 12 -26 5 -39 -7 -15 -24 -19 -87 -21 l-77 -3 -3 -47 -3 -48 75 0
c65 0 77 -3 90 -22 11 -15 12 -26 5 -39 -7 -15 -24 -19 -87 -21 l-77 -3 -3
-57 -3 -58 75 0 c54 0 79 -4 90 -16 19 -19 20 -25 4 -47 -10 -12 -32 -17 -88
-19 l-75 -3 -5 -55 -5 -55 -50 -5 -50 -5 -3 -77 c-2 -63 -6 -80 -21 -87 -13
-7 -24 -6 -39 5 -19 13 -22 25 -22 90 l0 75 -47 -3 -48 -3 -3 -77 c-2 -63 -6
-80 -21 -87 -13 -7 -24 -6 -39 5 -19 13 -22 25 -22 90 l0 75 -57 -3 -58 -3 -3
-77 c-2 -68 -6 -79 -24 -89 -36 -20 -58 19 -58 102 l0 69 -45 0 c-52 0 -65 16
-65 79 l0 41 -73 0 c-71 0 -97 10 -97 36 0 30 31 44 101 44 l69 0 0 50 0 50
-73 0 c-71 0 -97 10 -97 36 0 30 31 44 101 44 l69 0 0 60 0 60 -73 0 c-71 0
-97 10 -97 36 0 30 31 44 101 44 l69 0 0 42 c0 54 22 78 72 78 l38 0 0 69 c0
50 4 74 16 85 19 19 36 20 52 4z m393 -1141 c116 -61 146 -218 62 -317 -105
-122 -287 -99 -354 45 -46 100 5 235 106 281 49 22 135 17 186 -9z m-763 -9
c7 -7 12 -24 12 -39 0 -26 4 -28 43 -31 36 -3 42 -6 45 -27 5 -30 -20 -51 -60
-51 -26 0 -28 -3 -28 -39 0 -40 0 -40 43 -43 36 -3 42 -6 45 -27 5 -30 -20
-51 -59 -51 -21 0 -28 -6 -32 -29 -8 -37 -24 -41 -172 -41 -129 0 -165 11
-165 51 0 14 -7 19 -26 19 -35 0 -64 17 -64 38 0 27 20 42 57 42 32 0 33 1 33
40 0 36 -2 40 -26 40 -35 0 -64 17 -64 38 0 27 20 42 57 42 28 0 33 3 33 24 0
50 19 56 174 56 97 0 146 -4 154 -12z m1742 -363 c119 -119 150 -145 170 -143
18 2 26 10 28 28 2 20 -19 46 -108 135 -60 60 -110 113 -110 117 0 5 37 8 83
8 l82 0 103 -103 102 -103 -2 -294 -3 -295 -135 -3 -134 -3 -147 147 c-118
118 -151 145 -170 142 -16 -2 -25 -11 -27 -27 -3 -19 20 -47 114 -142 l119
-119 -105 0 -105 0 -103 103 -102 102 0 298 0 297 153 0 152 0 145 -145z
m-925 -225 l0 -55 -420 0 -420 0 -3 44 c-6 77 -39 72 425 69 l418 -3 0 -55z
m3 -377 l-3 -58 -420 0 -420 0 -3 58 -3 57 426 0 426 0 -3 -57z m982 -289 c0
-4 -41 -71 -91 -150 l-92 -144 -504 0 -503 0 77 150 78 150 518 0 c284 0 517
-3 517 -6z m-1840 -174 l0 -40 -40 0 -40 0 0 40 0 40 40 0 40 0 0 -40z m160 0
l0 -40 -40 0 -40 0 0 40 0 40 40 0 40 0 0 -40z m160 0 l0 -40 -40 0 -40 0 0
40 0 40 40 0 40 0 0 -40z m-685 -135 c16 -15 25 -36 25 -55 0 -19 -9 -40 -25
-55 -15 -16 -36 -25 -55 -25 -19 0 -40 9 -55 25 -16 15 -25 36 -25 55 0 19 9
40 25 55 15 16 36 25 55 25 19 0 40 -9 55 -25z m2720 0 c50 -49 15 -135 -55
-135 -41 0 -80 39 -80 80 0 41 39 80 80 80 19 0 40 -9 55 -25z m-2355 -25 l0
-40 -40 0 -40 0 0 40 0 40 40 0 40 0 0 -40z m160 0 l0 -40 -40 0 -40 0 0 40 0
40 40 0 40 0 0 -40z m160 0 l0 -40 -40 0 -40 0 0 40 0 40 40 0 40 0 0 -40z"/>
<path d="M942 4398 c-7 -7 -12 -19 -12 -28 0 -8 109 -124 243 -258 252 -252
279 -272 293 -216 6 24 -16 49 -237 270 -134 134 -251 244 -259 244 -9 0 -21
-5 -28 -12z"/>
<path d="M942 4028 c-7 -7 -12 -19 -12 -28 0 -8 109 -124 243 -258 252 -252
279 -272 293 -216 6 24 -16 49 -237 270 -134 134 -251 244 -259 244 -9 0 -21
-5 -28 -12z"/>
<path d="M942 3658 c-7 -7 -12 -19 -12 -28 0 -20 330 -350 351 -350 19 0 39
20 39 40 0 20 -330 350 -351 350 -8 0 -20 -5 -27 -12z"/>
<path d="M942 3288 c-24 -24 -11 -45 91 -146 101 -101 122 -113 145 -90 24 24
11 45 -91 146 -101 101 -122 113 -145 90z"/>
<path d="M1977 3442 c-15 -16 -17 -46 -17 -213 0 -141 4 -200 13 -212 11 -16
34 -17 227 -15 l215 3 3 215 c2 193 1 216 -15 227 -12 10 -72 13 -213 13 -178
0 -198 -2 -213 -18z"/>
<path d="M2246 2519 c-80 -63 -70 -187 19 -225 95 -39 185 18 185 119 0 44 -4
53 -39 88 -35 35 -44 39 -88 39 -36 0 -58 -6 -77 -21z"/>
<path d="M1412 2408 l3 -113 88 -3 87 -3 0 116 0 115 -90 0 -91 0 3 -112z"/>
<path d="M3247 1292 c-36 -39 -7 -102 45 -102 24 0 58 35 58 60 0 27 -35 60
-63 60 -13 0 -31 -8 -40 -18z"/>
<path d="M2407 1172 c-34 -38 -9 -102 39 -102 25 0 38 10 53 38 29 55 -50 110
-92 64z"/>
</g>
</svg>
