<?xml version="1.0" standalone="no"?>
<!DOCTYPE svg PUBLIC "-//W3C//DTD SVG 20010904//EN"
 "http://www.w3.org/TR/2001/REC-SVG-20010904/DTD/svg10.dtd">
<svg version="1.0" xmlns="http://www.w3.org/2000/svg"
 width="512.000000pt" height="512.000000pt" viewBox="0 0 512.000000 512.000000"
 preserveAspectRatio="xMidYMid meet">

<g transform="translate(0.000000,512.000000) scale(0.100000,-0.100000)"
fill="#000000" stroke="none">
<path d="M800 4703 l1 -68 350 -385 c429 -472 442 -487 437 -501 -2 -6 -178
147 -391 340 -212 193 -389 351 -392 351 -3 0 -5 -39 -5 -87 l0 -88 395 -423
c217 -232 395 -428 395 -434 0 -7 -12 0 -27 13 -54 50 -690 611 -745 657 -17
14 -18 9 -18 -89 l0 -104 340 -374 c187 -206 340 -378 340 -383 0 -11 -27 -10
-35 1 -7 12 -615 564 -632 575 -10 5 -13 -15 -12 -91 l0 -98 254 -285 c140
-157 253 -289 252 -294 -2 -6 -8 -11 -14 -13 -5 -2 -116 91 -246 207 -130 115
-238 210 -241 210 -3 0 -6 -175 -6 -390 l0 -390 85 0 85 0 0 -240 0 -240 166
-2 c146 -3 168 -5 178 -20 8 -13 8 -23 0 -35 -10 -16 -32 -18 -178 -21 l-166
-2 0 -50 0 -50 156 0 c159 0 194 -7 194 -38 0 -38 -19 -42 -187 -42 l-163 0 0
-55 0 -55 170 0 170 0 6 -27 c12 -46 -11 -53 -188 -53 l-158 0 0 -50 0 -50
166 -2 c146 -3 168 -5 178 -21 8 -12 8 -22 0 -35 -10 -15 -32 -17 -178 -20
l-166 -2 0 -50 0 -50 158 0 c177 0 200 -7 188 -53 l-6 -27 -170 0 -170 0 0
-260 0 -260 1590 0 1590 0 0 1810 0 1810 -538 0 -538 0 -74 75 -74 75 -598 0
-598 0 0 -75 0 -75 -203 0 -202 0 -185 200 -185 200 -77 0 -78 0 0 -67z m1760
-438 l-44 -45 -393 0 -393 0 0 45 0 45 437 0 437 0 -44 -45z m1415 -60 c16
-15 25 -36 25 -55 0 -19 -9 -40 -25 -55 -15 -16 -36 -25 -55 -25 -19 0 -40 9
-55 25 -16 15 -25 36 -25 55 0 19 9 40 25 55 15 16 36 25 55 25 19 0 40 -9 55
-25z m-1055 -99 c0 -2 -22 -20 -49 -40 l-49 -36 -383 0 -383 0 39 40 39 40
393 0 c216 0 393 -2 393 -4z m30 -901 c0 -558 0 -565 -20 -565 -20 0 -20 7
-20 565 0 558 0 565 20 565 20 0 20 -7 20 -565z m270 0 c0 -496 -2 -565 -15
-565 -13 0 -15 69 -15 565 0 496 2 565 15 565 13 0 15 -69 15 -565z m280 0 c0
-558 0 -565 -20 -565 -20 0 -20 7 -20 565 0 558 0 565 20 565 20 0 20 -7 20
-565z m280 0 c0 -558 0 -565 -20 -565 -20 0 -20 7 -20 565 0 558 0 565 20 565
20 0 20 -7 20 -565z m-1290 23 l0 -308 -298 0 -298 0 2 308 c1 169 2 307 3
307 0 0 134 0 296 1 l295 0 0 -308z m-79 -671 c54 -36 79 -82 79 -144 0 -30
-7 -67 -15 -83 -42 -82 -157 -114 -237 -67 -115 67 -117 229 -4 298 45 28 133
26 177 -4z m1011 -252 c115 -149 145 -191 122 -175 -87 63 -345 263 -350 271
-3 6 23 9 72 7 l78 -3 78 -100z m-1002 -300 c0 -13 -48 -15 -375 -15 -206 0
-375 4 -375 8 0 5 3 12 7 15 3 4 172 7 375 7 320 0 368 -2 368 -15z m939 -325
c94 -72 173 -135 176 -140 4 -6 -23 -10 -69 -10 l-75 0 -93 122 c-120 157
-120 158 -114 158 3 0 82 -59 175 -130z m-939 -55 c0 -13 -48 -15 -375 -15
-206 0 -375 4 -375 8 0 5 3 12 7 15 3 4 172 7 375 7 320 0 368 -2 368 -15z
m920 -347 c13 -25 13 -31 0 -55 -30 -53 -110 -34 -110 25 0 63 79 84 110 30z
m-850 -108 c11 -11 20 -29 20 -40 0 -42 -62 -75 -96 -52 -24 16 -35 51 -23 75
23 43 66 50 99 17z m-1235 -145 c16 -15 25 -36 25 -55 0 -19 -9 -40 -25 -55
-15 -16 -36 -25 -55 -25 -19 0 -40 9 -55 25 -16 15 -25 36 -25 55 0 19 9 40
25 55 15 16 36 25 55 25 19 0 40 -9 55 -25z m2720 0 c50 -49 15 -135 -55 -135
-41 0 -80 39 -80 80 0 41 39 80 80 80 19 0 40 -9 55 -25z"/>
</g>
</svg>
