<?xml version="1.0" encoding="UTF-8"?>
<!DOCTYPE svg PUBLIC "-//W3C//DTD SVG 1.1//EN" "http://www.w3.org/Graphics/SVG/1.1/DTD/svg11.dtd">
<svg xmlns="http://www.w3.org/2000/svg" version="1.1" width="512px" height="512px" style="shape-rendering:geometricPrecision; text-rendering:geometricPrecision; image-rendering:optimizeQuality; fill-rule:evenodd; clip-rule:evenodd" xmlns:xlink="http://www.w3.org/1999/xlink">
<g><path style="opacity:0.972" fill="#000000" d="M 77.5,29.5 C 84.6154,29.0753 91.6154,29.5753 98.5,31C 110.132,44.3004 122.132,57.3004 134.5,70C 145.495,70.4998 156.495,70.6665 167.5,70.5C 167.334,66.1539 167.501,61.8206 168,57.5C 168.5,56.3333 169.333,55.5 170.5,55C 211.833,54.3333 253.167,54.3333 294.5,55C 299.5,60 304.5,65 309.5,70C 345.5,70.3333 381.5,70.6667 417.5,71C 418,71.5 418.5,72 419,72.5C 419.667,194.5 419.667,316.5 419,438.5C 418.5,439 418,439.5 417.5,440C 309.5,440.667 201.5,440.667 93.5,440C 93,439.5 92.5,439 92,438.5C 91.5,379.168 91.3333,319.834 91.5,260.5C 86.8215,260.666 82.1548,260.499 77.5,260C 77,259.5 76.5,259 76,258.5C 75.3333,182.833 75.3333,107.167 76,31.5C 76.7172,30.9558 77.2172,30.2891 77.5,29.5 Z M 83.5,38.5 C 86.5184,38.3354 89.5184,38.502 92.5,39C 112.667,60.5 132.833,82 153,103.5C 153.667,131.167 153.667,158.833 153,186.5C 133.5,208 114,229.5 94.5,251C 90.8484,251.499 87.1817,251.665 83.5,251.5C 83.5,180.5 83.5,109.5 83.5,38.5 Z M 176.5,63.5 C 214.501,63.3333 252.501,63.5 290.5,64C 296.682,70.0145 302.682,76.1812 308.5,82.5C 300.999,88.494 293.333,94.3274 285.5,100C 257.494,100.167 229.494,100.667 201.5,101.5C 200.167,103.5 200.167,105.5 201.5,107.5C 225.16,108.333 248.826,108.833 272.5,109C 270.651,110.093 268.984,111.426 267.5,113C 237.168,113.5 206.835,113.667 176.5,113.5C 176.5,105.5 176.5,97.5 176.5,89.5C 204.502,89.6666 232.502,89.5 260.5,89C 264.065,86.8225 264.399,84.1558 261.5,81C 233.169,80.5 204.835,80.3334 176.5,80.5C 176.5,74.8333 176.5,69.1667 176.5,63.5 Z M 388.5,89.5 C 397.85,89.3654 400.517,93.532 396.5,102C 387.956,105.322 384.123,102.489 385,93.5C 385.69,91.6498 386.856,90.3164 388.5,89.5 Z M 288.5,129.5 C 292.007,128.994 295.174,129.66 298,131.5C 298.667,171.5 298.667,211.5 298,251.5C 294.333,254.167 290.667,254.167 287,251.5C 286.333,211.5 286.333,171.5 287,131.5C 287.717,130.956 288.217,130.289 288.5,129.5 Z M 316.5,129.5 C 319.249,129.274 321.916,129.607 324.5,130.5C 325.833,171.167 325.833,211.833 324.5,252.5C 321.5,253.833 318.5,253.833 315.5,252.5C 315.167,232.167 314.833,211.833 314.5,191.5C 314.511,170.617 315.178,149.95 316.5,129.5 Z M 344.5,129.5 C 347.249,129.274 349.916,129.607 352.5,130.5C 353.833,171.167 353.833,211.833 352.5,252.5C 349.5,253.833 346.5,253.833 343.5,252.5C 343.167,232.167 342.833,211.833 342.5,191.5C 342.511,170.617 343.178,149.95 344.5,129.5 Z M 371.5,129.5 C 375.007,128.994 378.174,129.66 381,131.5C 381.667,171.5 381.667,211.5 381,251.5C 377.333,254.167 373.667,254.167 370,251.5C 369.333,211.5 369.333,171.5 370,131.5C 370.717,130.956 371.217,130.289 371.5,129.5 Z M 197.5,137.5 C 199.722,137.178 201.556,137.845 203,139.5C 203.499,144.489 203.666,149.489 203.5,154.5C 207.167,154.5 210.833,154.5 214.5,154.5C 214.334,149.156 214.501,143.823 215,138.5C 217.267,137.065 219.267,137.398 221,139.5C 221.499,144.489 221.666,149.489 221.5,154.5C 225.833,154.5 230.167,154.5 234.5,154.5C 234.334,149.156 234.501,143.823 235,138.5C 237.267,137.065 239.267,137.398 241,139.5C 241.499,144.489 241.666,149.489 241.5,154.5C 251.34,152.677 255.007,156.677 252.5,166.5C 257.511,166.334 262.511,166.501 267.5,167C 270.167,169 270.167,171 267.5,173C 262.511,173.499 257.511,173.666 252.5,173.5C 252.5,177.167 252.5,180.833 252.5,184.5C 257.511,184.334 262.511,184.501 267.5,185C 270.167,187 270.167,189 267.5,191C 262.511,191.499 257.511,191.666 252.5,191.5C 252.5,195.833 252.5,200.167 252.5,204.5C 257.875,204.172 263.208,204.505 268.5,205.5C 269.953,207.644 269.62,209.477 267.5,211C 262.511,211.499 257.511,211.666 252.5,211.5C 254.671,220.993 251.004,224.993 241.5,223.5C 241.666,228.511 241.499,233.511 241,238.5C 239,241.167 237,241.167 235,238.5C 234.501,233.511 234.334,228.511 234.5,223.5C 230.833,223.5 227.167,223.5 223.5,223.5C 223.666,228.511 223.499,233.511 223,238.5C 221,241.167 219,241.167 217,238.5C 216.501,233.511 216.334,228.511 216.5,223.5C 212.167,223.5 207.833,223.5 203.5,223.5C 203.666,228.511 203.499,233.511 203,238.5C 201,241.167 199,241.167 197,238.5C 196.501,233.511 196.334,228.511 196.5,223.5C 186.66,225.323 182.993,221.323 185.5,211.5C 180.489,211.666 175.489,211.499 170.5,211C 168.398,209.267 168.065,207.267 169.5,205C 174.823,204.501 180.156,204.334 185.5,204.5C 185.5,200.833 185.5,197.167 185.5,193.5C 180.489,193.666 175.489,193.499 170.5,193C 168.398,191.267 168.065,189.267 169.5,187C 174.823,186.501 180.156,186.334 185.5,186.5C 185.5,182.167 185.5,177.833 185.5,173.5C 180.489,173.666 175.489,173.499 170.5,173C 168.302,171.33 167.968,169.33 169.5,167C 174.823,166.501 180.156,166.334 185.5,166.5C 182.993,156.677 186.66,152.677 196.5,154.5C 196.214,148.741 196.548,143.075 197.5,137.5 Z M 227.5,249.5 C 246.122,249.946 253.956,259.279 251,277.5C 244.854,289.55 235.354,293.384 222.5,289C 209.552,279.601 207.719,268.435 217,255.5C 220.351,253.079 223.851,251.079 227.5,249.5 Z M 134.5,252.5 C 144.506,252.334 154.506,252.5 164.5,253C 166.016,254.897 166.683,257.064 166.5,259.5C 168.857,259.337 171.19,259.503 173.5,260C 176.167,262 176.167,264 173.5,266C 171.19,266.497 168.857,266.663 166.5,266.5C 166.5,269.5 166.5,272.5 166.5,275.5C 168.857,275.337 171.19,275.503 173.5,276C 176.167,278 176.167,280 173.5,282C 171.19,282.497 168.857,282.663 166.5,282.5C 166.335,284.827 165.669,286.993 164.5,289C 154.833,289.667 145.167,289.667 135.5,289C 133.771,287.211 133.104,285.044 133.5,282.5C 130.813,282.664 128.146,282.497 125.5,282C 122.842,279.614 123.175,277.614 126.5,276C 128.81,275.503 131.143,275.337 133.5,275.5C 133.5,272.5 133.5,269.5 133.5,266.5C 130.813,266.664 128.146,266.497 125.5,266C 122.842,263.614 123.175,261.614 126.5,260C 128.81,259.503 131.143,259.337 133.5,259.5C 133.298,257.05 133.631,254.717 134.5,252.5 Z M 295.5,275.5 C 305.506,275.334 315.506,275.5 325.5,276C 334.833,285.333 344.167,294.667 353.5,304C 359,305.167 361.167,303 360,297.5C 352.833,290.333 345.667,283.167 338.5,276C 343.833,275.333 349.167,275.333 354.5,276C 360.667,282.167 366.833,288.333 373,294.5C 373.5,314.164 373.667,333.831 373.5,353.5C 364.494,353.666 355.494,353.5 346.5,353C 337.167,343.667 327.833,334.333 318.5,325C 312.434,324.286 310.6,326.786 313,332.5C 319.833,339.333 326.667,346.167 333.5,353C 327.167,353.667 320.833,353.667 314.5,353C 308.333,346.833 302.167,340.667 296,334.5C 295.5,314.836 295.333,295.169 295.5,275.5 Z M 164.5,305.5 C 191.502,305.333 218.502,305.5 245.5,306C 246.456,309.394 246.789,312.894 246.5,316.5C 218.825,316.833 191.159,316.5 163.5,315.5C 161.968,311.905 162.302,308.572 164.5,305.5 Z M 163.5,343.5 C 191.167,343.5 218.833,343.5 246.5,343.5C 246.5,347.167 246.5,350.833 246.5,354.5C 218.825,354.833 191.159,354.5 163.5,353.5C 162.261,350.17 162.261,346.837 163.5,343.5 Z M 242.5,377.5 C 276.835,377.333 311.168,377.5 345.5,378C 339.167,387.667 332.833,397.333 326.5,407C 293.495,407.833 260.495,407.667 227.5,406.5C 232.781,396.937 237.781,387.27 242.5,377.5 Z M 154.5,391.5 C 156.833,391.5 159.167,391.5 161.5,391.5C 161.5,394.167 161.5,396.833 161.5,399.5C 159.167,399.5 156.833,399.5 154.5,399.5C 154.5,396.833 154.5,394.167 154.5,391.5 Z M 170.5,391.5 C 172.833,391.5 175.167,391.5 177.5,391.5C 177.5,394.167 177.5,396.833 177.5,399.5C 175.167,399.5 172.833,399.5 170.5,399.5C 170.5,396.833 170.5,394.167 170.5,391.5 Z M 186.5,391.5 C 188.833,391.5 191.167,391.5 193.5,391.5C 193.5,394.167 193.5,396.833 193.5,399.5C 191.167,399.5 188.833,399.5 186.5,399.5C 186.5,396.833 186.5,394.167 186.5,391.5 Z M 116.5,407.5 C 125.85,407.365 128.517,411.532 124.5,420C 115.956,423.322 112.123,420.489 113,411.5C 113.69,409.65 114.856,408.316 116.5,407.5 Z M 154.5,407.5 C 156.833,407.5 159.167,407.5 161.5,407.5C 161.5,410.167 161.5,412.833 161.5,415.5C 159.167,415.5 156.833,415.5 154.5,415.5C 154.5,412.833 154.5,410.167 154.5,407.5 Z M 170.5,407.5 C 172.833,407.5 175.167,407.5 177.5,407.5C 177.5,410.167 177.5,412.833 177.5,415.5C 175.167,415.5 172.833,415.5 170.5,415.5C 170.5,412.833 170.5,410.167 170.5,407.5 Z M 186.5,407.5 C 188.833,407.5 191.167,407.5 193.5,407.5C 193.5,410.167 193.5,412.833 193.5,415.5C 191.167,415.5 188.833,415.5 186.5,415.5C 186.5,412.833 186.5,410.167 186.5,407.5 Z M 388.5,407.5 C 397.85,407.365 400.517,411.532 396.5,420C 387.956,423.322 384.123,420.489 385,411.5C 385.69,409.65 386.856,408.316 388.5,407.5 Z"/></g>
<g><path style="opacity:0.86" fill="#000000" d="M 93.5,70.5 C 95.5273,70.3379 97.5273,70.5045 99.5,71C 115,86.5 130.5,102 146,117.5C 148.426,123.078 146.592,125.578 140.5,125C 123.622,108.623 107.288,91.7895 91.5,74.5C 92.1799,73.1401 92.8466,71.8068 93.5,70.5 Z"/></g>
<g><path style="opacity:0.86" fill="#000000" d="M 93.5,107.5 C 95.5273,107.338 97.5273,107.505 99.5,108C 115,123.5 130.5,139 146,154.5C 148.426,160.078 146.592,162.578 140.5,162C 123.622,145.623 107.288,128.79 91.5,111.5C 92.1799,110.14 92.8466,108.807 93.5,107.5 Z"/></g>
<g><path style="opacity:0.861" fill="#000000" d="M 95.5,143.5 C 96.766,144.09 98.0993,144.59 99.5,145C 110,155.5 120.5,166 131,176.5C 132.619,182.883 130.453,185.05 124.5,183C 112.953,171.955 101.953,160.455 91.5,148.5C 92.1598,146.185 93.4931,144.519 95.5,143.5 Z"/></g>
<g><path style="opacity:0.958" fill="#000000" d="M 197.5,165.5 C 211.837,165.333 226.171,165.5 240.5,166C 241,166.5 241.5,167 242,167.5C 242.667,181.5 242.667,195.5 242,209.5C 241.692,210.308 241.192,210.975 240.5,211.5C 226.212,212.649 211.878,212.816 197.5,212C 197,211.5 196.5,211 196,210.5C 195.333,196.167 195.333,181.833 196,167.5C 196.717,166.956 197.217,166.289 197.5,165.5 Z"/></g>
<g><path style="opacity:0.851" fill="#000000" d="M 95.5,180.5 C 96.766,181.09 98.0993,181.59 99.5,182C 105.667,188.167 111.833,194.333 118,200.5C 119.619,206.883 117.453,209.05 111.5,207C 104.283,200.285 97.6158,193.118 91.5,185.5C 92.1598,183.185 93.4931,181.519 95.5,180.5 Z"/></g>
<g><path style="opacity:0.915" fill="#000000" d="M 228.5,256.5 C 243.13,257.434 247.964,264.767 243,278.5C 236.805,284.807 229.972,285.641 222.5,281C 217.528,275.308 216.694,269.142 220,262.5C 222.322,259.605 225.155,257.605 228.5,256.5 Z"/></g>
<g><path style="opacity:0.96" fill="#000000" d="M 140.5,259.5 C 146.5,259.5 152.5,259.5 158.5,259.5C 158.5,267.167 158.5,274.833 158.5,282.5C 152.5,282.5 146.5,282.5 140.5,282.5C 140.5,274.833 140.5,267.167 140.5,259.5 Z"/></g>
<g><path style="opacity:0.839" fill="#000000" d="M 324.5,380.5 C 333.936,379.53 336.603,383.363 332.5,392C 322.223,393.263 319.557,389.43 324.5,380.5 Z"/></g>
<g><path style="opacity:0.852" fill="#000000" d="M 240.5,392.5 C 247.827,391.329 250.994,394.329 250,401.5C 246,405.5 242,405.5 238,401.5C 236.927,397.9 237.76,394.9 240.5,392.5 Z"/></g>
</svg>
