<?xml version="1.0" encoding="UTF-8"?>
<!DOCTYPE svg PUBLIC "-//W3C//DTD SVG 1.1//EN" "http://www.w3.org/Graphics/SVG/1.1/DTD/svg11.dtd">
<svg xmlns="http://www.w3.org/2000/svg" version="1.1" width="512px" height="512px" style="shape-rendering:geometricPrecision; text-rendering:geometricPrecision; image-rendering:optimizeQuality; fill-rule:evenodd; clip-rule:evenodd" xmlns:xlink="http://www.w3.org/1999/xlink">
<g><path style="opacity:0.999" fill="#28567f" d="M 258.5,-0.5 C 339.167,-0.5 419.833,-0.5 500.5,-0.5C 505.167,2.16667 508.833,5.83333 511.5,10.5C 511.5,173.833 511.5,337.167 511.5,500.5C 508.753,505.582 504.753,509.249 499.5,511.5C 428.5,511.5 357.5,511.5 286.5,511.5C 300.179,504.286 302.846,494.119 294.5,481C 292.112,479.139 289.446,477.806 286.5,477C 273.171,476.5 259.837,476.333 246.5,476.5C 246.5,458.833 246.5,441.167 246.5,423.5C 285.201,423.963 323.868,423.463 362.5,422C 381.455,414.276 389.789,400.11 387.5,379.5C 387.667,302.833 387.5,226.166 387,149.5C 383.067,135.9 374.233,127.4 360.5,124C 348.505,123.5 336.505,123.333 324.5,123.5C 298.672,122.502 272.672,122.169 246.5,122.5C 246.333,85.4985 246.5,48.4985 247,11.5C 249.019,5.64984 252.852,1.64984 258.5,-0.5 Z"/></g>
<g><path style="opacity:1" fill="#2b3e50" d="M 287.5,43.5 C 348.168,43.3333 408.834,43.5 469.5,44C 472.583,44.786 474.749,46.6193 476,49.5C 476.667,57.1667 476.667,64.8333 476,72.5C 474.878,74.6238 473.378,76.4571 471.5,78C 409.833,78.6667 348.167,78.6667 286.5,78C 285.333,76.8333 284.167,75.6667 283,74.5C 282.333,65.8333 282.333,57.1667 283,48.5C 284.193,46.5029 285.693,44.8362 287.5,43.5 Z"/></g>
<g><path style="opacity:1" fill="#3b97d2" d="M 246.5,122.5 C 272.672,122.169 298.672,122.502 324.5,123.5C 322.891,193.244 292.891,246.744 234.5,284C 202.296,302.514 167.963,315.514 131.5,323C 87.8969,331.356 43.8969,335.189 -0.5,334.5C -0.5,272.833 -0.5,211.167 -0.5,149.5C 4.28464,134.888 14.2846,126.055 29.5,123C 101.833,122.5 174.166,122.333 246.5,122.5 Z"/></g>
<g><path style="opacity:1" fill="#2980ba" d="M 324.5,123.5 C 336.505,123.333 348.505,123.5 360.5,124C 374.233,127.4 383.067,135.9 387,149.5C 387.5,226.166 387.667,302.833 387.5,379.5C 258.167,379.5 128.833,379.5 -0.5,379.5C -0.5,364.5 -0.5,349.5 -0.5,334.5C 43.8969,335.189 87.8969,331.356 131.5,323C 167.963,315.514 202.296,302.514 234.5,284C 292.891,246.744 322.891,193.244 324.5,123.5 Z"/></g>
<g><path style="opacity:1" fill="#f87a76" d="M 443.5,123.5 C 456.889,121.415 464.889,126.915 467.5,140C 465.446,154.862 457.113,160.529 442.5,157C 431.908,149.825 429.742,140.658 436,129.5C 438.478,127.361 440.978,125.361 443.5,123.5 Z"/></g>
<g><path style="opacity:1" fill="#fefefe" d="M 67.5,149.5 C 76.0149,149.844 79.5149,154.177 78,162.5C 65.1667,175.333 52.3333,188.167 39.5,201C 29.3932,203.899 25.2265,200.065 27,189.5C 40.395,175.938 53.895,162.604 67.5,149.5 Z"/></g>
<g><path style="opacity:1" fill="#fefefe" d="M 120.5,149.5 C 129.918,150.067 133.085,154.734 130,163.5C 99.8333,193.667 69.6667,223.833 39.5,254C 29.3748,256.879 25.2081,253.046 27,242.5C 58.0616,211.271 89.2283,180.271 120.5,149.5 Z"/></g>
<g><path style="opacity:1" fill="#4eb86f" d="M 445.5,193.5 C 463.784,194.084 470.284,203.084 465,220.5C 458.054,228.912 449.554,230.745 439.5,226C 432.099,218.968 430.599,210.801 435,201.5C 437.855,197.789 441.355,195.123 445.5,193.5 Z"/></g>
<g><path style="opacity:0.998" fill="#83b4ca" d="M -0.5,379.5 C 128.833,379.5 258.167,379.5 387.5,379.5C 389.789,400.11 381.455,414.276 362.5,422C 323.868,423.463 285.201,423.963 246.5,423.5C 211.167,423.5 175.833,423.5 140.5,423.5C 102.832,423.667 65.1652,423.5 27.5,423C 13.4234,419.088 4.09008,410.255 -0.5,396.5C -0.5,390.833 -0.5,385.167 -0.5,379.5 Z"/></g>
<g><path style="opacity:0.998" fill="#547580" d="M 140.5,423.5 C 175.833,423.5 211.167,423.5 246.5,423.5C 246.5,441.167 246.5,458.833 246.5,476.5C 210.996,476.832 175.663,476.498 140.5,475.5C 140.5,458.167 140.5,440.833 140.5,423.5 Z"/></g>
<g><path style="opacity:1" fill="#2b3e50" d="M 332.5,449.5 C 336.95,449.142 340.45,450.808 343,454.5C 343.667,462.833 343.667,471.167 343,479.5C 340.103,484.155 335.937,485.655 330.5,484C 328.951,482.786 327.785,481.286 327,479.5C 326.333,471.167 326.333,462.833 327,454.5C 328.73,452.598 330.563,450.931 332.5,449.5 Z"/></g>
<g><path style="opacity:1" fill="#2b3e51" d="M 367.5,449.5 C 372.977,449.145 376.81,451.478 379,456.5C 379.667,463.833 379.667,471.167 379,478.5C 374.825,485.275 369.492,486.275 363,481.5C 361.424,472.911 361.09,464.244 362,455.5C 363.36,452.977 365.193,450.977 367.5,449.5 Z"/></g>
<g><path style="opacity:1" fill="#2b3e51" d="M 402.5,449.5 C 407.814,448.74 411.647,450.74 414,455.5C 414.667,463.167 414.667,470.833 414,478.5C 411.646,484.095 407.479,485.928 401.5,484C 399.274,482.773 397.774,480.939 397,478.5C 396.333,470.833 396.333,463.167 397,455.5C 398.36,452.977 400.193,450.977 402.5,449.5 Z"/></g>
<g><path style="opacity:1" fill="#2b3e50" d="M 438.5,449.5 C 442.95,449.142 446.45,450.808 449,454.5C 449.667,462.833 449.667,471.167 449,479.5C 446.103,484.155 441.937,485.655 436.5,484C 434.951,482.786 433.785,481.286 433,479.5C 432.333,471.167 432.333,462.833 433,454.5C 434.73,452.598 436.563,450.931 438.5,449.5 Z"/></g>
<g><path style="opacity:1" fill="#2b3e50" d="M 473.5,449.5 C 477.987,449.161 481.487,450.827 484,454.5C 484.667,463.167 484.667,471.833 484,480.5C 481.045,484.277 477.212,485.443 472.5,484C 470.333,483.167 468.833,481.667 468,479.5C 467.333,471.167 467.333,462.833 468,454.5C 469.73,452.598 471.563,450.931 473.5,449.5 Z"/></g>
<g><path style="opacity:0.995" fill="#83b4ca" d="M 140.5,475.5 C 175.663,476.498 210.996,476.832 246.5,476.5C 259.837,476.333 273.171,476.5 286.5,477C 289.446,477.806 292.112,479.139 294.5,481C 302.846,494.119 300.179,504.286 286.5,511.5C 224.167,511.5 161.833,511.5 99.5,511.5C 89.8792,506.926 86.0459,499.259 88,488.5C 90.3521,481.483 95.1854,477.316 102.5,476C 115.162,475.5 127.829,475.333 140.5,475.5 Z"/></g>
</svg>
