<?xml version="1.0" encoding="UTF-8"?>
<!DOCTYPE svg PUBLIC "-//W3C//DTD SVG 1.1//EN" "http://www.w3.org/Graphics/SVG/1.1/DTD/svg11.dtd">
<svg xmlns="http://www.w3.org/2000/svg" version="1.1" width="512px" height="512px" style="shape-rendering:geometricPrecision; text-rendering:geometricPrecision; image-rendering:optimizeQuality; fill-rule:evenodd; clip-rule:evenodd" xmlns:xlink="http://www.w3.org/1999/xlink">
<g><path style="opacity:0.95" fill="#000000" d="M 511.5,90.5 C 511.5,104.833 511.5,119.167 511.5,133.5C 497.833,133.5 484.167,133.5 470.5,133.5C 470.5,143.5 470.5,153.5 470.5,163.5C 480.833,163.5 491.167,163.5 501.5,163.5C 501.5,189.833 501.5,216.167 501.5,242.5C 491.167,242.5 480.833,242.5 470.5,242.5C 470.5,251.167 470.5,259.833 470.5,268.5C 480.833,268.5 491.167,268.5 501.5,268.5C 501.5,294.833 501.5,321.167 501.5,347.5C 491.167,347.5 480.833,347.5 470.5,347.5C 470.5,371.833 470.5,396.167 470.5,420.5C 456.167,420.5 441.833,420.5 427.5,420.5C 427.5,408.167 427.5,395.833 427.5,383.5C 387.833,383.5 348.167,383.5 308.5,383.5C 308.5,394.167 308.5,404.833 308.5,415.5C 278.5,415.5 248.5,415.5 218.5,415.5C 218.5,404.833 218.5,394.167 218.5,383.5C 211.833,383.5 205.167,383.5 198.5,383.5C 198.5,394.167 198.5,404.833 198.5,415.5C 151.167,415.5 103.833,415.5 56.5,415.5C 56.5,404.833 56.5,394.167 56.5,383.5C 37.5,383.5 18.5,383.5 -0.5,383.5C -0.5,298.167 -0.5,212.833 -0.5,127.5C 133.833,127.5 268.167,127.5 402.5,127.5C 402.5,160.5 402.5,193.5 402.5,226.5C 410.833,226.5 419.167,226.5 427.5,226.5C 427.5,181.167 427.5,135.833 427.5,90.5C 455.5,90.5 483.5,90.5 511.5,90.5 Z M 444.5,107.5 C 461.5,107.5 478.5,107.5 495.5,107.5C 495.5,110.5 495.5,113.5 495.5,116.5C 481.5,116.5 467.5,116.5 453.5,116.5C 453.5,212.167 453.5,307.833 453.5,403.5C 450.5,403.5 447.5,403.5 444.5,403.5C 444.5,304.833 444.5,206.167 444.5,107.5 Z M 15.5,143.5 C 138.833,143.5 262.167,143.5 385.5,143.5C 385.5,218.167 385.5,292.833 385.5,367.5C 262.167,367.5 138.833,367.5 15.5,367.5C 15.5,292.833 15.5,218.167 15.5,143.5 Z M 470.5,180.5 C 475.167,180.5 479.833,180.5 484.5,180.5C 484.5,195.833 484.5,211.167 484.5,226.5C 479.833,226.5 475.167,226.5 470.5,226.5C 470.5,211.167 470.5,195.833 470.5,180.5 Z M 81.5,201.5 C 112.168,201.333 142.835,201.5 173.5,202C 177,203.5 179.5,206 181,209.5C 181.667,240.167 181.667,270.833 181,301.5C 179.5,305 177,307.5 173.5,309C 142.833,309.667 112.167,309.667 81.5,309C 78,307.5 75.5,305 74,301.5C 73.3333,270.833 73.3333,240.167 74,209.5C 75.6904,205.979 78.1904,203.312 81.5,201.5 Z M 259.5,201.5 C 282.5,201.5 305.5,201.5 328.5,201.5C 328.5,205.167 328.5,208.833 328.5,212.5C 305.5,212.5 282.5,212.5 259.5,212.5C 259.5,208.833 259.5,205.167 259.5,201.5 Z M 402.5,242.5 C 410.833,242.5 419.167,242.5 427.5,242.5C 427.5,284.167 427.5,325.833 427.5,367.5C 419.167,367.5 410.833,367.5 402.5,367.5C 402.5,325.833 402.5,284.167 402.5,242.5 Z M 259.5,263.5 C 282.5,263.5 305.5,263.5 328.5,263.5C 328.5,267.5 328.5,271.5 328.5,275.5C 305.5,275.5 282.5,275.5 259.5,275.5C 259.5,271.5 259.5,267.5 259.5,263.5 Z M 470.5,284.5 C 475.167,284.5 479.833,284.5 484.5,284.5C 484.5,299.833 484.5,315.167 484.5,330.5C 479.833,330.5 475.167,330.5 470.5,330.5C 470.5,315.167 470.5,299.833 470.5,284.5 Z M 73.5,383.5 C 109.5,383.5 145.5,383.5 181.5,383.5C 181.5,388.5 181.5,393.5 181.5,398.5C 145.5,398.5 109.5,398.5 73.5,398.5C 73.5,393.5 73.5,388.5 73.5,383.5 Z M 235.5,383.5 C 254.167,383.5 272.833,383.5 291.5,383.5C 291.5,388.5 291.5,393.5 291.5,398.5C 272.833,398.5 254.167,398.5 235.5,398.5C 235.5,393.5 235.5,388.5 235.5,383.5 Z"/></g>
<g><path style="opacity:0.939" fill="#000000" d="M 77.5,166.5 C 83.1667,166.5 88.8333,166.5 94.5,166.5C 94.5,172.5 94.5,178.5 94.5,184.5C 98.1667,184.5 101.833,184.5 105.5,184.5C 105.5,178.5 105.5,172.5 105.5,166.5C 110.833,166.5 116.167,166.5 121.5,166.5C 121.5,172.5 121.5,178.5 121.5,184.5C 125.5,184.5 129.5,184.5 133.5,184.5C 133.5,178.5 133.5,172.5 133.5,166.5C 138.833,166.5 144.167,166.5 149.5,166.5C 149.5,172.5 149.5,178.5 149.5,184.5C 153.167,184.5 156.833,184.5 160.5,184.5C 160.5,178.5 160.5,172.5 160.5,166.5C 166.167,166.5 171.833,166.5 177.5,166.5C 177.334,172.842 177.5,179.175 178,185.5C 187.833,188.667 194.333,195.167 197.5,205C 203.825,205.5 210.158,205.666 216.5,205.5C 216.5,211.167 216.5,216.833 216.5,222.5C 210.5,222.5 204.5,222.5 198.5,222.5C 198.5,226.167 198.5,229.833 198.5,233.5C 204.5,233.5 210.5,233.5 216.5,233.5C 216.5,238.833 216.5,244.167 216.5,249.5C 210.5,249.5 204.5,249.5 198.5,249.5C 198.5,253.5 198.5,257.5 198.5,261.5C 204.5,261.5 210.5,261.5 216.5,261.5C 216.5,266.833 216.5,272.167 216.5,277.5C 210.5,277.5 204.5,277.5 198.5,277.5C 198.5,281.167 198.5,284.833 198.5,288.5C 204.5,288.5 210.5,288.5 216.5,288.5C 216.5,294.167 216.5,299.833 216.5,305.5C 210.158,305.334 203.825,305.5 197.5,306C 194.333,315.833 187.833,322.333 178,325.5C 177.5,331.825 177.334,338.158 177.5,344.5C 171.833,344.5 166.167,344.5 160.5,344.5C 160.5,338.5 160.5,332.5 160.5,326.5C 156.833,326.5 153.167,326.5 149.5,326.5C 149.5,332.5 149.5,338.5 149.5,344.5C 144.167,344.5 138.833,344.5 133.5,344.5C 133.5,338.5 133.5,332.5 133.5,326.5C 129.5,326.5 125.5,326.5 121.5,326.5C 121.5,332.5 121.5,338.5 121.5,344.5C 116.167,344.5 110.833,344.5 105.5,344.5C 105.5,338.5 105.5,332.5 105.5,326.5C 101.833,326.5 98.1667,326.5 94.5,326.5C 94.5,332.5 94.5,338.5 94.5,344.5C 88.8333,344.5 83.1667,344.5 77.5,344.5C 77.6662,338.158 77.4995,331.825 77,325.5C 67.1667,322.333 60.6667,315.833 57.5,306C 51.1754,305.5 44.8421,305.334 38.5,305.5C 38.5,299.833 38.5,294.167 38.5,288.5C 44.5,288.5 50.5,288.5 56.5,288.5C 56.5,284.833 56.5,281.167 56.5,277.5C 50.5,277.5 44.5,277.5 38.5,277.5C 38.5,272.167 38.5,266.833 38.5,261.5C 44.5,261.5 50.5,261.5 56.5,261.5C 56.5,257.5 56.5,253.5 56.5,249.5C 50.5,249.5 44.5,249.5 38.5,249.5C 38.5,244.167 38.5,238.833 38.5,233.5C 44.5,233.5 50.5,233.5 56.5,233.5C 56.5,229.833 56.5,226.167 56.5,222.5C 50.5,222.5 44.5,222.5 38.5,222.5C 38.5,216.833 38.5,211.167 38.5,205.5C 44.8421,205.666 51.1754,205.5 57.5,205C 60.6667,195.167 67.1667,188.667 77,185.5C 77.4995,179.175 77.6662,172.842 77.5,166.5 Z M 81.5,201.5 C 78.1904,203.312 75.6904,205.979 74,209.5C 73.3333,240.167 73.3333,270.833 74,301.5C 75.5,305 78,307.5 81.5,309C 112.167,309.667 142.833,309.667 173.5,309C 177,307.5 179.5,305 181,301.5C 181.667,270.833 181.667,240.167 181,209.5C 179.5,206 177,203.5 173.5,202C 142.835,201.5 112.168,201.333 81.5,201.5 Z"/></g>
<g><path style="opacity:0.921" fill="#000000" d="M 242.5,184.5 C 276.833,184.5 311.167,184.5 345.5,184.5C 345.5,199.5 345.5,214.5 345.5,229.5C 311.167,229.5 276.833,229.5 242.5,229.5C 242.5,214.5 242.5,199.5 242.5,184.5 Z M 259.5,201.5 C 259.5,205.167 259.5,208.833 259.5,212.5C 282.5,212.5 305.5,212.5 328.5,212.5C 328.5,208.833 328.5,205.167 328.5,201.5C 305.5,201.5 282.5,201.5 259.5,201.5 Z"/></g>
<g><path style="opacity:0.895" fill="#000000" d="M 154.5,213.5 C 165.989,212.155 170.823,217.155 169,228.5C 162.638,237.041 155.972,237.375 149,229.5C 146.752,222.742 148.586,217.409 154.5,213.5 Z"/></g>
<g><path style="opacity:0.938" fill="#000000" d="M 242.5,247.5 C 276.833,247.5 311.167,247.5 345.5,247.5C 345.5,262.5 345.5,277.5 345.5,292.5C 311.498,292.667 277.498,292.5 243.5,292C 242.509,277.245 242.176,262.412 242.5,247.5 Z M 259.5,263.5 C 259.5,267.5 259.5,271.5 259.5,275.5C 282.5,275.5 305.5,275.5 328.5,275.5C 328.5,271.5 328.5,267.5 328.5,263.5C 305.5,263.5 282.5,263.5 259.5,263.5 Z"/></g>
</svg>
