<?xml version="1.0" encoding="UTF-8"?>
<!DOCTYPE svg PUBLIC "-//W3C//DTD SVG 1.1//EN" "http://www.w3.org/Graphics/SVG/1.1/DTD/svg11.dtd">
<svg xmlns="http://www.w3.org/2000/svg" version="1.1" width="512px" height="512px" style="shape-rendering:geometricPrecision; text-rendering:geometricPrecision; image-rendering:optimizeQuality; fill-rule:evenodd; clip-rule:evenodd" xmlns:xlink="http://www.w3.org/1999/xlink">
<g><path style="opacity:1" fill="#373d44" d="M 107.5,108.5 C 107.056,121.907 107.556,135.24 109,148.5C 116.406,160.854 126.572,163.687 139.5,157C 142.433,154.736 144.6,151.902 146,148.5C 147.444,135.24 147.944,121.907 147.5,108.5C 210.167,108.5 272.833,108.5 335.5,108.5C 335.054,122.24 335.554,135.907 337,149.5C 344.015,160.588 353.515,163.421 365.5,158C 369.388,155.778 372.221,152.612 374,148.5C 375.444,135.24 375.944,121.907 375.5,108.5C 392.503,108.333 409.503,108.5 426.5,109C 435.896,114.048 439.23,121.882 436.5,132.5C 421.5,132.5 406.5,132.5 391.5,132.5C 391.5,198.833 391.5,265.167 391.5,331.5C 406.5,331.5 421.5,331.5 436.5,331.5C 436.667,351.836 436.5,372.169 436,392.5C 434.167,397 431,400.167 426.5,402C 409.503,402.5 392.503,402.667 375.5,402.5C 375.944,389.093 375.444,375.76 374,362.5C 366.569,350.137 356.402,347.303 343.5,354C 340.96,356.205 338.793,358.705 337,361.5C 335.554,375.093 335.054,388.76 335.5,402.5C 272.833,402.5 210.167,402.5 147.5,402.5C 147.667,389.829 147.5,377.162 147,364.5C 140.007,350.613 129.507,347.113 115.5,354C 111.896,356.708 109.396,360.208 108,364.5C 107.5,377.162 107.333,389.829 107.5,402.5C 99.8261,402.666 92.1594,402.5 84.5,402C 80,400.167 76.8333,397 75,392.5C 74.3333,301.167 74.3333,209.833 75,118.5C 76.8333,114 80,110.833 84.5,109C 92.1594,108.5 99.8261,108.334 107.5,108.5 Z"/></g>
<g><path style="opacity:1" fill="#e4e6e9" d="M 107.5,108.5 C 120.833,108.5 134.167,108.5 147.5,108.5C 147.944,121.907 147.444,135.24 146,148.5C 144.6,151.902 142.433,154.736 139.5,157C 126.572,163.687 116.406,160.854 109,148.5C 107.556,135.24 107.056,121.907 107.5,108.5 Z"/></g>
<g><path style="opacity:1" fill="#e4e6e9" d="M 335.5,108.5 C 348.833,108.5 362.167,108.5 375.5,108.5C 375.944,121.907 375.444,135.24 374,148.5C 372.221,152.612 369.388,155.778 365.5,158C 353.515,163.421 344.015,160.588 337,149.5C 335.554,135.907 335.054,122.24 335.5,108.5 Z"/></g>
<g><path style="opacity:1" fill="#3c4249" d="M 124.5,126.5 C 132.658,125.823 136.158,129.49 135,137.5C 132.774,141.861 129.274,143.361 124.5,142C 120.139,139.774 118.639,136.274 120,131.5C 121.025,129.313 122.525,127.646 124.5,126.5 Z"/></g>
<g><path style="opacity:1" fill="#3d4349" d="M 352.5,126.5 C 360.658,125.823 364.158,129.49 363,137.5C 360.774,141.861 357.274,143.361 352.5,142C 347.931,139.459 346.431,135.625 348,130.5C 349.397,128.93 350.897,127.596 352.5,126.5 Z"/></g>
<g><path style="opacity:1" fill="#444a50" d="M 436.5,132.5 C 436.5,138.167 436.5,143.833 436.5,149.5C 428.167,149.5 419.833,149.5 411.5,149.5C 411.5,177.167 411.5,204.833 411.5,232.5C 419.833,232.5 428.167,232.5 436.5,232.5C 436.5,237.167 436.5,241.833 436.5,246.5C 428.167,246.5 419.833,246.5 411.5,246.5C 411.5,269.167 411.5,291.833 411.5,314.5C 419.833,314.5 428.167,314.5 436.5,314.5C 436.5,320.167 436.5,325.833 436.5,331.5C 421.5,331.5 406.5,331.5 391.5,331.5C 391.5,265.167 391.5,198.833 391.5,132.5C 406.5,132.5 421.5,132.5 436.5,132.5 Z"/></g>
<g><path style="opacity:1" fill="#fac857" d="M 436.5,149.5 C 436.5,177.167 436.5,204.833 436.5,232.5C 428.167,232.5 419.833,232.5 411.5,232.5C 411.5,204.833 411.5,177.167 411.5,149.5C 419.833,149.5 428.167,149.5 436.5,149.5 Z"/></g>
<g><path style="opacity:1" fill="#434a51" d="M 146.5,172.5 C 216.167,172.333 285.834,172.5 355.5,173C 362.333,174.5 366.5,178.667 368,185.5C 368.667,232.167 368.667,278.833 368,325.5C 366.509,332.324 362.342,336.491 355.5,338C 285.833,338.667 216.167,338.667 146.5,338C 140.224,336.058 136.39,331.891 135,325.5C 134.333,278.5 134.333,231.5 135,184.5C 137.019,178.65 140.852,174.65 146.5,172.5 Z"/></g>
<g><path style="opacity:1" fill="#d3d5d6" d="M 189.5,226.5 C 197.377,225.5 204.711,227 211.5,231C 215.945,234.11 217.445,238.277 216,243.5C 214.475,246.087 212.308,246.92 209.5,246C 207.183,242.018 204.183,238.685 200.5,236C 196.833,235.333 193.167,235.333 189.5,236C 185.165,238.664 184.499,241.997 187.5,246C 194.396,248.582 201.396,250.915 208.5,253C 219.24,257.882 222.074,265.716 217,276.5C 214.224,280.65 210.391,283.484 205.5,285C 198.418,285.884 191.418,285.551 184.5,284C 176.357,280.213 173.191,274.046 175,265.5C 177.064,264.409 179.231,264.242 181.5,265C 183.377,267.251 184.877,269.751 186,272.5C 192.896,279.022 199.896,279.022 207,272.5C 208.183,268.726 207.349,265.559 204.5,263C 196.553,261.098 188.886,258.431 181.5,255C 172.668,247.345 172.334,239.345 180.5,231C 183.592,229.454 186.592,227.954 189.5,226.5 Z"/></g>
<g><path style="opacity:1" fill="#d4d5d6" d="M 243.5,226.5 C 253.008,225.351 261.175,228.017 268,234.5C 272.078,240.205 270.911,244.205 264.5,246.5C 261.18,244.333 258.68,241.333 257,237.5C 252.729,235.504 248.229,235.004 243.5,236C 238.586,239.171 238.253,242.837 242.5,247C 249.822,249.331 257.155,251.665 264.5,254C 272.475,259.27 274.641,266.437 271,275.5C 268.778,279.388 265.612,282.221 261.5,284C 252.184,286.571 243.184,285.904 234.5,282C 229.139,278.118 226.972,272.951 228,266.5C 230.418,264.32 233.084,263.987 236,265.5C 238.688,275.088 244.855,278.921 254.5,277C 262.319,273.567 263.319,268.901 257.5,263C 251.12,261.155 244.786,259.155 238.5,257C 229.01,252.539 226.177,245.372 230,235.5C 233.453,230.862 237.953,227.862 243.5,226.5 Z"/></g>
<g><path style="opacity:1" fill="#d4d6d7" d="M 286.5,227.5 C 294.84,227.334 303.173,227.5 311.5,228C 322,230.5 328.5,237 331,247.5C 332.674,257.788 331.007,267.454 326,276.5C 321.687,281.574 316.187,284.407 309.5,285C 301.833,285.667 294.167,285.667 286.5,285C 285.584,284.626 284.75,284.126 284,283.5C 282.362,266.258 282.029,248.925 283,231.5C 283.69,229.65 284.856,228.316 286.5,227.5 Z"/></g>
<g><path style="opacity:1" fill="#9fa2a5" d="M 307.5,237.5 C 303.167,237.5 298.833,237.5 294.5,237.5C 294.5,250.167 294.5,262.833 294.5,275.5C 293.505,262.677 293.171,249.677 293.5,236.5C 298.363,236.181 303.03,236.514 307.5,237.5 Z"/></g>
<g><path style="opacity:1" fill="#434a51" d="M 307.5,237.5 C 313.638,238.135 317.471,241.469 319,247.5C 320.126,255.045 319.46,262.379 317,269.5C 315.833,271.333 314.333,272.833 312.5,274C 306.593,275.361 300.593,275.861 294.5,275.5C 294.5,262.833 294.5,250.167 294.5,237.5C 298.833,237.5 303.167,237.5 307.5,237.5 Z"/></g>
<g><path style="opacity:1" fill="#fccb57" d="M 436.5,246.5 C 436.5,249.167 436.5,251.833 436.5,254.5C 431.821,254.334 427.155,254.501 422.5,255C 419.141,257.034 418.808,259.368 421.5,262C 426.489,262.499 431.489,262.666 436.5,262.5C 436.5,266.5 436.5,270.5 436.5,274.5C 431.489,274.334 426.489,274.501 421.5,275C 418.808,277.632 419.141,279.966 422.5,282C 427.155,282.499 431.821,282.666 436.5,282.5C 436.5,286.167 436.5,289.833 436.5,293.5C 431.489,293.334 426.489,293.501 421.5,294C 418.808,296.632 419.141,298.966 422.5,301C 427.155,301.499 431.821,301.666 436.5,301.5C 436.5,305.833 436.5,310.167 436.5,314.5C 428.167,314.5 419.833,314.5 411.5,314.5C 411.5,291.833 411.5,269.167 411.5,246.5C 419.833,246.5 428.167,246.5 436.5,246.5 Z"/></g>
<g><path style="opacity:1" fill="#efbb54" d="M 436.5,254.5 C 436.5,257.167 436.5,259.833 436.5,262.5C 431.489,262.666 426.489,262.499 421.5,262C 418.808,259.368 419.141,257.034 422.5,255C 427.155,254.501 431.821,254.334 436.5,254.5 Z"/></g>
<g><path style="opacity:1" fill="#efbb54" d="M 436.5,274.5 C 436.5,277.167 436.5,279.833 436.5,282.5C 431.821,282.666 427.155,282.499 422.5,282C 419.141,279.966 418.808,277.632 421.5,275C 426.489,274.501 431.489,274.334 436.5,274.5 Z"/></g>
<g><path style="opacity:1" fill="#efbb54" d="M 436.5,293.5 C 436.5,296.167 436.5,298.833 436.5,301.5C 431.821,301.666 427.155,301.499 422.5,301C 419.141,298.966 418.808,296.632 421.5,294C 426.489,293.501 431.489,293.334 436.5,293.5 Z"/></g>
<g><path style="opacity:1" fill="#e4e6e9" d="M 147.5,402.5 C 134.167,402.5 120.833,402.5 107.5,402.5C 107.333,389.829 107.5,377.162 108,364.5C 109.396,360.208 111.896,356.708 115.5,354C 129.507,347.113 140.007,350.613 147,364.5C 147.5,377.162 147.667,389.829 147.5,402.5 Z"/></g>
<g><path style="opacity:0.999" fill="#e4e6e9" d="M 375.5,402.5 C 362.167,402.5 348.833,402.5 335.5,402.5C 335.054,388.76 335.554,375.093 337,361.5C 338.793,358.705 340.96,356.205 343.5,354C 356.402,347.303 366.569,350.137 374,362.5C 375.444,375.76 375.944,389.093 375.5,402.5 Z"/></g>
<g><path style="opacity:1" fill="#3c4249" d="M 124.5,368.5 C 132.658,367.823 136.158,371.49 135,379.5C 132.774,383.861 129.274,385.361 124.5,384C 120.139,381.774 118.639,378.274 120,373.5C 121.025,371.313 122.525,369.646 124.5,368.5 Z"/></g>
<g><path style="opacity:1" fill="#3c4249" d="M 352.5,368.5 C 360.658,367.823 364.158,371.49 363,379.5C 360.774,383.861 357.274,385.361 352.5,384C 348.139,381.774 346.639,378.274 348,373.5C 349.025,371.313 350.525,369.646 352.5,368.5 Z"/></g>
</svg>
