<?xml version="1.0" encoding="UTF-8"?>
<!DOCTYPE svg PUBLIC "-//W3C//DTD SVG 1.1//EN" "http://www.w3.org/Graphics/SVG/1.1/DTD/svg11.dtd">
<svg xmlns="http://www.w3.org/2000/svg" version="1.1" width="512px" height="512px" style="shape-rendering:geometricPrecision; text-rendering:geometricPrecision; image-rendering:optimizeQuality; fill-rule:evenodd; clip-rule:evenodd" xmlns:xlink="http://www.w3.org/1999/xlink">
<g><path style="opacity:0.997" fill="#3c5959" d="M 68.5,-0.5 C 83.5,-0.5 98.5,-0.5 113.5,-0.5C 113.333,19.5028 113.5,39.5028 114,59.5C 115.076,62.079 116.909,63.7457 119.5,64.5C 209.999,65.6657 300.666,65.8324 391.5,65C 394,63.8333 395.833,62 397,59.5C 397.5,39.5028 397.667,19.5028 397.5,-0.5C 404.167,-0.5 410.833,-0.5 417.5,-0.5C 417.667,165.167 417.5,330.834 417,496.5C 413.894,503.775 408.728,508.775 401.5,511.5C 400.167,511.5 398.833,511.5 397.5,511.5C 397.977,490.741 397.477,470.075 396,449.5C 394.786,447.951 393.286,446.785 391.5,446C 378.504,445.5 365.504,445.333 352.5,445.5C 274.833,445.333 197.166,445.5 119.5,446C 117,447.167 115.167,449 114,451.5C 113.5,471.497 113.333,491.497 113.5,511.5C 98.5,511.5 83.5,511.5 68.5,511.5C 60.7802,508.94 55.9469,503.607 54,495.5C 53.3333,335.5 53.3333,175.5 54,15.5C 55.9469,7.39321 60.7802,2.05987 68.5,-0.5 Z"/></g>
<g><path style="opacity:1" fill="#358fba" d="M 113.5,-0.5 C 194.833,-0.5 276.167,-0.5 357.5,-0.5C 357.5,7.83333 357.5,16.1667 357.5,24.5C 286.499,24.3333 215.499,24.5 144.5,25C 139.279,28.1592 138.279,32.3259 141.5,37.5C 142.665,38.5836 143.998,39.4169 145.5,40C 216.166,40.5 286.833,40.6667 357.5,40.5C 357.666,47.175 357.5,53.8417 357,60.5C 356.535,61.9308 355.701,63.0975 354.5,64C 276.167,64.5 197.834,64.6667 119.5,64.5C 116.909,63.7457 115.076,62.079 114,59.5C 113.5,39.5028 113.333,19.5028 113.5,-0.5 Z"/></g>
<g><path style="opacity:1" fill="#1580aa" d="M 357.5,-0.5 C 370.833,-0.5 384.167,-0.5 397.5,-0.5C 397.667,19.5028 397.5,39.5028 397,59.5C 395.833,62 394,63.8333 391.5,65C 300.666,65.8324 209.999,65.6657 119.5,64.5C 197.834,64.6667 276.167,64.5 354.5,64C 355.701,63.0975 356.535,61.9308 357,60.5C 357.5,53.8417 357.666,47.175 357.5,40.5C 364.928,41.9614 369.595,39.128 371.5,32C 371.297,29.5941 370.297,27.5941 368.5,26C 364.974,24.6632 361.308,24.1632 357.5,24.5C 357.5,16.1667 357.5,7.83333 357.5,-0.5 Z"/></g>
<g><path style="opacity:1" fill="#394949" d="M 417.5,-0.5 C 425.833,-0.5 434.167,-0.5 442.5,-0.5C 450.22,2.05987 455.053,7.39321 457,15.5C 457.667,175.5 457.667,335.5 457,495.5C 455.053,503.607 450.22,508.94 442.5,511.5C 428.833,511.5 415.167,511.5 401.5,511.5C 408.728,508.775 413.894,503.775 417,496.5C 417.5,330.834 417.667,165.167 417.5,-0.5 Z"/></g>
<g><path style="opacity:1" fill="#f8fbfc" d="M 357.5,24.5 C 361.308,24.1632 364.974,24.6632 368.5,26C 370.297,27.5941 371.297,29.5941 371.5,32C 369.595,39.128 364.928,41.9614 357.5,40.5C 286.833,40.6667 216.166,40.5 145.5,40C 143.998,39.4169 142.665,38.5836 141.5,37.5C 138.279,32.3259 139.279,28.1592 144.5,25C 215.499,24.5 286.499,24.3333 357.5,24.5 Z"/></g>
<g><path style="opacity:1" fill="#69d7e3" d="M 347.5,134.5 C 351.672,135.829 354.839,138.495 357,142.5C 357.5,171.165 357.667,199.831 357.5,228.5C 352.972,222.891 347.305,218.724 340.5,216C 329.225,214.424 317.892,214.091 306.5,215C 305.333,216.167 304.167,217.333 303,218.5C 302.333,242.5 302.333,266.5 303,290.5C 303.398,293.232 304.898,295.065 307.5,296C 317.893,296.899 328.227,296.566 338.5,295C 346.493,292.154 352.826,287.321 357.5,280.5C 357.667,309.502 357.5,338.502 357,367.5C 355.225,372.112 352.058,375.112 347.5,376.5C 272.499,376.667 197.499,376.5 122.5,376C 118.612,373.778 115.779,370.612 114,366.5C 113.333,292.5 113.333,218.5 114,144.5C 115.779,140.388 118.612,137.222 122.5,135C 197.499,134.5 272.499,134.333 347.5,134.5 Z"/></g>
<g><path style="opacity:1" fill="#2acfde" d="M 347.5,134.5 C 361.171,134.333 374.837,134.5 388.5,135C 392.593,137.007 395.427,140.173 397,144.5C 397.667,218.5 397.667,292.5 397,366.5C 395.221,370.612 392.388,373.778 388.5,376C 374.837,376.5 361.171,376.667 347.5,376.5C 352.058,375.112 355.225,372.112 357,367.5C 357.5,338.502 357.667,309.502 357.5,280.5C 365.469,263.163 365.469,245.83 357.5,228.5C 357.667,199.831 357.5,171.165 357,142.5C 354.839,138.495 351.672,135.829 347.5,134.5 Z"/></g>
<g><path style="opacity:1" fill="#fcfefe" d="M 170.5,213.5 C 181.744,212.395 192.077,214.895 201.5,221C 207.435,230.723 204.768,235.056 193.5,234C 186.186,228.502 178.186,227.169 169.5,230C 164.87,233.451 164.537,237.117 168.5,241C 178.315,245.076 187.982,249.409 197.5,254C 211.111,267.725 210.444,280.725 195.5,293C 177.311,301.542 161.478,298.375 148,283.5C 146.045,275.209 149.212,271.709 157.5,273C 160.887,276.053 164.553,278.72 168.5,281C 174.5,283 180.5,283 186.5,281C 193.538,276.814 194.205,271.814 188.5,266C 178.5,261.667 168.5,257.333 158.5,253C 151.958,246.463 149.791,238.629 152,229.5C 155.645,221.007 161.811,215.674 170.5,213.5 Z"/></g>
<g><path style="opacity:1" fill="#fcfefe" d="M 245.5,213.5 C 259.175,211.539 271.008,215.205 281,224.5C 282.291,232.788 278.791,235.955 270.5,234C 263.627,228.901 255.96,227.235 247.5,229C 242.302,231.995 241.302,235.995 244.5,241C 253.997,244.61 263.331,248.61 272.5,253C 284.143,261.586 286.643,272.419 280,285.5C 269.118,297.726 255.952,300.893 240.5,295C 233.816,292.306 228.316,288.14 224,282.5C 222.874,276.752 225.208,273.419 231,272.5C 236.565,276.035 242.398,279.201 248.5,282C 256.136,283.895 262.636,282.061 268,276.5C 269.14,272.611 268.307,269.278 265.5,266.5C 255.576,261.911 245.576,257.411 235.5,253C 225.192,242.373 224.859,231.373 234.5,220C 237.933,217.289 241.6,215.123 245.5,213.5 Z"/></g>
<g><path style="opacity:1" fill="#fdfefe" d="M 357.5,228.5 C 365.469,245.83 365.469,263.163 357.5,280.5C 352.826,287.321 346.493,292.154 338.5,295C 328.227,296.566 317.893,296.899 307.5,296C 304.898,295.065 303.398,293.232 303,290.5C 302.333,266.5 302.333,242.5 303,218.5C 304.167,217.333 305.333,216.167 306.5,215C 317.892,214.091 329.225,214.424 340.5,216C 347.305,218.724 352.972,222.891 357.5,228.5 Z"/></g>
<g><path style="opacity:1" fill="#6bd8e4" d="M 317.5,228.5 C 337.464,225.649 347.798,234.149 348.5,254C 349.237,275.633 338.903,284.8 317.5,281.5C 317.5,263.833 317.5,246.167 317.5,228.5 Z"/></g>
<g><path style="opacity:1" fill="#fc7e42" d="M 352.5,445.5 C 354.807,446.977 356.64,448.977 358,451.5C 358.5,458.492 358.666,465.492 358.5,472.5C 354.112,471.943 350.945,473.61 349,477.5C 348.5,488.828 348.333,500.162 348.5,511.5C 336.833,511.5 325.167,511.5 313.5,511.5C 313.667,500.162 313.5,488.828 313,477.5C 308.748,471.347 304.081,471.014 299,476.5C 298.5,488.162 298.333,499.829 298.5,511.5C 286.833,511.5 275.167,511.5 263.5,511.5C 263.667,500.162 263.5,488.828 263,477.5C 258,470.833 253,470.833 248,477.5C 247.5,488.828 247.333,500.162 247.5,511.5C 235.833,511.5 224.167,511.5 212.5,511.5C 212.667,499.829 212.5,488.162 212,476.5C 206.919,471.014 202.252,471.347 198,477.5C 197.5,488.828 197.333,500.162 197.5,511.5C 185.833,511.5 174.167,511.5 162.5,511.5C 162.667,499.829 162.5,488.162 162,476.5C 157.255,471.257 152.588,471.257 148,476.5C 147.5,488.162 147.333,499.829 147.5,511.5C 136.167,511.5 124.833,511.5 113.5,511.5C 113.333,491.497 113.5,471.497 114,451.5C 115.167,449 117,447.167 119.5,446C 197.166,445.5 274.833,445.333 352.5,445.5 Z"/></g>
<g><path style="opacity:1" fill="#f96931" d="M 352.5,445.5 C 365.504,445.333 378.504,445.5 391.5,446C 393.286,446.785 394.786,447.951 396,449.5C 397.477,470.075 397.977,490.741 397.5,511.5C 386.167,511.5 374.833,511.5 363.5,511.5C 363.667,499.829 363.5,488.162 363,476.5C 361.603,474.93 360.103,473.596 358.5,472.5C 358.666,465.492 358.5,458.492 358,451.5C 356.64,448.977 354.807,446.977 352.5,445.5 Z"/></g>
<g><path style="opacity:1" fill="#fcb042" d="M 162.5,511.5 C 157.5,511.5 152.5,511.5 147.5,511.5C 147.333,499.829 147.5,488.162 148,476.5C 152.588,471.257 157.255,471.257 162,476.5C 162.5,488.162 162.667,499.829 162.5,511.5 Z"/></g>
<g><path style="opacity:1" fill="#fcb042" d="M 212.5,511.5 C 207.5,511.5 202.5,511.5 197.5,511.5C 197.333,500.162 197.5,488.828 198,477.5C 202.252,471.347 206.919,471.014 212,476.5C 212.5,488.162 212.667,499.829 212.5,511.5 Z"/></g>
<g><path style="opacity:1" fill="#fcaf42" d="M 263.5,511.5 C 258.167,511.5 252.833,511.5 247.5,511.5C 247.333,500.162 247.5,488.828 248,477.5C 253,470.833 258,470.833 263,477.5C 263.5,488.828 263.667,500.162 263.5,511.5 Z"/></g>
<g><path style="opacity:1" fill="#fcb042" d="M 313.5,511.5 C 308.5,511.5 303.5,511.5 298.5,511.5C 298.333,499.829 298.5,488.162 299,476.5C 304.081,471.014 308.748,471.347 313,477.5C 313.5,488.828 313.667,500.162 313.5,511.5 Z"/></g>
<g><path style="opacity:1" fill="#fcb042" d="M 358.5,472.5 C 360.103,473.596 361.603,474.93 363,476.5C 363.5,488.162 363.667,499.829 363.5,511.5C 358.5,511.5 353.5,511.5 348.5,511.5C 348.333,500.162 348.5,488.828 349,477.5C 350.945,473.61 354.112,471.943 358.5,472.5 Z"/></g>
</svg>
