<svg width="1080" height="1080" viewBox="0 0 1080 1080" fill="none" xmlns="http://www.w3.org/2000/svg">
<rect width="1080" height="1080" rx="250" fill="black"/>
<ellipse cx="749.171" cy="261.505" rx="43.5218" ry="43.5047" fill="#D9D9D9"/>
<ellipse cx="749.171" cy="630.423" rx="43.5218" ry="43.5047" fill="#D9D9D9"/>
<ellipse cx="571.602" cy="446.833" rx="43.5218" ry="43.5047" fill="#D9D9D9"/>
<rect width="261.079" height="43.5132" transform="matrix(0.707245 -0.706968 0.707245 0.706968 534.173 446.082)" fill="#D9D9D9"/>
<rect width="261.079" height="43.5132" transform="matrix(0.707245 0.706968 -0.707245 0.706968 564.947 415.512)" fill="#D9D9D9"/>
<ellipse cx="43.5218" cy="43.5047" rx="43.5218" ry="43.5047" transform="matrix(-1 0 0 1 747.431 403.328)" fill="#D9D9D9"/>
<ellipse cx="43.5218" cy="43.5047" rx="43.5218" ry="43.5047" transform="matrix(-1 0 0 1 747.431 772.246)" fill="#D9D9D9"/>
<ellipse cx="43.5218" cy="43.5047" rx="43.5218" ry="43.5047" transform="matrix(-1 0 0 1 925 588.656)" fill="#D9D9D9"/>
<rect width="261.079" height="43.5132" transform="matrix(-0.707245 -0.706968 -0.707245 0.706968 918.907 631.41)" fill="#D9D9D9"/>
<rect width="261.079" height="43.5132" transform="matrix(-0.707245 0.706968 0.707245 0.706968 888.133 600.84)" fill="#D9D9D9"/>
<ellipse cx="43.5218" cy="43.5047" rx="43.5218" ry="43.5047" transform="matrix(-1 0 0 1 246.058 405.07)" fill="#D9D9D9"/>
<ellipse cx="43.5218" cy="43.5047" rx="43.5218" ry="43.5047" transform="matrix(-1 0 0 1 246.058 773.988)" fill="#D9D9D9"/>
<ellipse cx="43.5218" cy="43.5047" rx="43.5218" ry="43.5047" transform="matrix(-1 0 0 1 423.627 590.398)" fill="#D9D9D9"/>
<rect width="261.079" height="43.5132" transform="matrix(-0.707247 -0.706967 -0.707247 0.706967 417.534 633.148)" fill="#D9D9D9"/>
<rect width="261.079" height="43.5132" transform="matrix(-0.707247 0.706967 0.707247 0.706967 386.76 602.582)" fill="#D9D9D9"/>
<ellipse cx="43.5218" cy="43.5047" rx="43.5218" ry="43.5047" transform="matrix(-1 0 0 1 246.058 405.07)" fill="#D9D9D9"/>
<ellipse cx="43.5218" cy="43.5047" rx="43.5218" ry="43.5047" transform="matrix(-1 0 0 1 423.627 221.48)" fill="#D9D9D9"/>
<rect width="261.079" height="43.5132" transform="matrix(-0.707245 0.706968 0.707245 0.706968 386.76 233.66)" fill="#D9D9D9"/>
<ellipse cx="43.5047" cy="43.5218" rx="43.5047" ry="43.5218" transform="matrix(0.0174593 0.999848 -0.999848 0.0174455 614.138 402.824)" fill="#D9D9D9"/>
<rect width="261.079" height="43.5132" transform="matrix(0.719483 0.69452 -0.694797 0.719197 383.01 235.422)" fill="#D9D9D9"/>
<ellipse cx="569.861" cy="650.438" rx="43.5046" ry="43.5218" transform="rotate(90 569.861 650.438)" fill="#D9D9D9"/>
<ellipse cx="200.796" cy="650.438" rx="43.5046" ry="43.5218" transform="rotate(90 200.796 650.438)" fill="#D9D9D9"/>
<ellipse cx="384.458" cy="472.938" rx="43.5046" ry="43.5218" transform="rotate(90 384.458 472.938)" fill="#D9D9D9"/>
<rect width="261.079" height="43.5132" transform="matrix(0.707247 0.706966 -0.707247 0.706966 385.212 435.523)" fill="#D9D9D9"/>
<rect width="261.079" height="43.5132" transform="matrix(-0.707247 0.706966 -0.707247 -0.706966 415.793 466.285)" fill="#D9D9D9"/>
</svg>
